<?xml version="1.0" standalone="no"?>
<!DOCTYPE svg PUBLIC "-//W3C//DTD SVG 20010904//EN"
 "http://www.w3.org/TR/2001/REC-SVG-20010904/DTD/svg10.dtd">
<svg version="1.0" xmlns="http://www.w3.org/2000/svg"
 width="1080.000000pt" height="1080.000000pt" viewBox="0 0 1080.000000 1080.000000"
 preserveAspectRatio="xMidYMid meet">
<metadata>
Created by potrace 1.14, written by Peter Selinger 2001-2017
</metadata>
<g transform="translate(0.000000,1080.000000) scale(0.100000,-0.100000)"
fill="#000000" stroke="none">
<path d="M5155 10485 c-5 -2 -44 -11 -85 -20 -146 -34 -254 -106 -395 -268
-11 -12 -49 -56 -85 -97 -36 -41 -69 -80 -75 -86 -5 -6 -37 -42 -70 -80 -33
-37 -70 -79 -82 -92 -13 -12 -23 -25 -23 -28 0 -2 -19 -24 -42 -49 -24 -24
-57 -62 -75 -82 -60 -71 -89 -104 -223 -254 -14 -15 -38 -44 -55 -64 -16 -20
-46 -53 -65 -74 -19 -20 -51 -57 -72 -81 -20 -25 -49 -59 -65 -76 -15 -17 -41
-46 -58 -65 -65 -74 -171 -195 -180 -205 -11 -12 -90 -103 -125 -144 -12 -14
-49 -56 -83 -94 -34 -38 -70 -78 -80 -90 -35 -41 -122 -140 -137 -156 -8 -9
-40 -45 -70 -80 -30 -36 -64 -74 -75 -86 -11 -12 -38 -43 -60 -68 -22 -26 -56
-64 -75 -85 -19 -21 -54 -61 -77 -87 -23 -27 -52 -61 -65 -75 -13 -14 -45 -52
-73 -84 -27 -32 -59 -68 -70 -80 -11 -13 -42 -48 -70 -80 -27 -31 -61 -70 -75
-85 -24 -26 -103 -117 -143 -164 -10 -11 -30 -34 -45 -51 -74 -81 -132 -154
-132 -164 0 -6 -4 -11 -8 -11 -9 0 -50 -78 -76 -145 -24 -62 -29 -102 -29
-220 1 -117 6 -164 24 -196 6 -11 12 -29 14 -40 6 -29 58 -129 67 -129 4 0 8
-6 8 -14 0 -17 111 -129 166 -167 65 -44 165 -87 240 -103 93 -20 264 -14 324
11 8 3 22 7 30 9 17 3 132 56 140 64 3 3 23 18 45 34 45 33 95 83 175 176 30
35 62 71 70 80 8 9 40 44 70 79 30 35 60 69 65 75 6 6 57 65 115 131 58 66
112 127 120 135 8 8 36 40 62 70 26 30 59 69 73 85 15 17 50 57 78 90 29 32
65 73 81 90 15 16 42 47 60 69 17 21 49 58 71 82 22 24 51 57 65 72 30 35 137
156 165 188 11 12 36 41 55 64 19 24 42 50 51 59 9 9 51 56 93 105 42 48 82
94 89 101 10 10 66 74 130 149 78 90 117 134 146 165 18 20 43 47 55 61 62 71
215 158 311 176 6 1 12 3 15 4 38 14 183 18 263 7 67 -10 192 -60 252 -101
184 -127 288 -316 296 -541 0 -22 0 -42 -1 -45 0 -3 -3 -27 -6 -55 -8 -87 -73
-265 -97 -265 -6 0 -8 -3 -4 -6 4 -5 -57 -90 -121 -169 -17 -21 -72 -146 -72
-164 0 -11 -5 -23 -10 -26 -6 -4 -8 -11 -4 -16 3 -5 1 -15 -4 -22 -6 -7 -10
-62 -10 -124 0 -192 52 -327 178 -467 42 -45 137 -115 200 -145 115 -55 297
-74 422 -44 35 8 68 16 73 17 6 1 19 7 30 13 11 6 25 12 30 13 6 0 37 16 70
35 65 37 127 93 220 200 33 37 75 84 93 103 17 18 32 35 32 38 0 2 12 16 28
32 15 16 52 58 82 93 77 89 120 138 156 179 18 19 42 48 55 63 13 15 38 43 54
61 17 18 55 61 85 96 30 35 65 75 78 89 39 45 65 75 127 146 33 38 67 77 75
85 8 9 16 23 18 31 2 7 8 16 12 19 16 10 58 112 79 189 24 94 22 236 -7 333
-46 153 -126 260 -317 423 -38 33 -79 69 -91 80 -11 11 -47 43 -80 70 -32 28
-68 59 -80 70 -11 11 -47 43 -79 70 -32 28 -70 61 -85 75 -14 14 -46 41 -71
61 -24 20 -56 47 -70 60 -14 13 -58 53 -98 89 -41 36 -79 70 -85 75 -6 6 -29
25 -51 44 -22 19 -74 64 -115 101 -41 37 -91 80 -110 96 -19 16 -42 35 -50 44
-8 8 -40 36 -70 62 -30 26 -67 57 -81 70 -14 13 -52 46 -84 73 -31 28 -67 59
-79 70 -36 32 -157 138 -180 158 -69 59 -133 116 -163 145 -18 17 -36 32 -38
32 -3 0 -13 8 -23 18 -10 9 -44 40 -76 67 -32 28 -64 56 -71 63 -8 6 -18 12
-22 12 -5 0 -19 9 -31 20 -12 12 -22 18 -22 14 0 -4 -9 1 -20 11 -11 10 -20
15 -20 11 0 -3 -10 0 -22 8 -40 25 -160 50 -248 51 -47 1 -89 1 -95 0z"/>
<path d="M8065 7284 c-11 -3 -40 -10 -65 -17 -25 -6 -47 -12 -50 -12 -11 -1
-146 -71 -165 -85 -27 -21 -171 -168 -220 -225 -22 -26 -55 -63 -73 -83 -18
-21 -47 -54 -65 -75 -18 -21 -52 -59 -75 -85 -24 -26 -55 -62 -69 -79 -14 -18
-44 -53 -67 -77 -22 -24 -59 -65 -81 -91 -22 -27 -52 -61 -67 -77 -16 -16 -28
-30 -28 -33 0 -2 -12 -16 -27 -32 -16 -16 -44 -47 -63 -69 -46 -53 -150 -171
-175 -199 -11 -13 -42 -49 -70 -81 -27 -32 -64 -73 -80 -91 -17 -17 -49 -53
-70 -79 -22 -26 -44 -52 -50 -58 -5 -6 -39 -45 -75 -86 -36 -41 -76 -87 -90
-101 -14 -15 -36 -39 -49 -55 -45 -54 -145 -169 -161 -185 -14 -14 -65 -73
-150 -173 -120 -140 -233 -224 -360 -266 -155 -52 -346 -40 -491 30 -99 47
-140 80 -242 191 -24 27 -95 157 -102 187 -2 10 -10 40 -18 67 -22 78 -19 242
4 328 35 123 72 187 198 343 38 47 98 208 106 286 16 141 -4 252 -67 387 -31
65 -56 100 -116 161 -177 178 -401 240 -647 180 -58 -15 -174 -70 -225 -107
-39 -29 -135 -126 -192 -194 -20 -24 -54 -63 -75 -86 -21 -23 -58 -65 -83 -94
-25 -28 -53 -61 -63 -73 -10 -12 -37 -43 -60 -69 -23 -27 -59 -67 -80 -90 -21
-22 -53 -58 -70 -80 -18 -21 -54 -62 -80 -90 -26 -29 -60 -68 -75 -87 -15 -19
-38 -46 -52 -60 -14 -14 -47 -52 -75 -84 -27 -32 -61 -70 -75 -86 -50 -56 -62
-73 -95 -134 -34 -61 -60 -125 -71 -175 -10 -45 -12 -225 -2 -256 4 -16 11
-43 13 -60 3 -16 26 -71 51 -122 33 -68 63 -110 112 -160 63 -65 192 -183 199
-183 2 0 11 -8 21 -17 10 -10 46 -43 81 -73 35 -30 76 -66 91 -80 15 -14 51
-45 80 -70 29 -25 65 -56 80 -70 15 -14 51 -45 80 -70 29 -25 62 -54 74 -65
12 -11 55 -49 96 -85 41 -36 80 -69 86 -75 6 -5 38 -32 70 -60 32 -27 65 -57
74 -65 9 -8 49 -44 90 -80 41 -36 80 -69 86 -75 6 -5 39 -35 74 -65 34 -30 72
-64 84 -75 13 -11 54 -47 92 -80 38 -33 79 -70 92 -82 13 -13 25 -23 28 -23 3
0 13 -8 22 -19 10 -10 89 -81 177 -157 88 -76 167 -145 176 -153 21 -21 64
-57 122 -104 47 -39 167 -103 203 -110 10 -2 26 -7 34 -10 61 -22 175 -27 289
-13 124 16 268 95 369 201 72 75 84 89 237 265 55 63 111 127 125 141 14 15
44 48 66 75 23 27 52 60 64 74 12 14 45 52 73 84 29 33 64 72 80 88 15 16 27
31 27 33 0 2 12 17 28 33 25 27 112 125 154 175 11 12 31 36 46 52 15 17 73
82 127 145 55 63 102 117 105 120 7 7 130 147 161 184 13 15 33 38 44 50 19
21 120 136 175 199 14 15 40 44 58 63 17 19 32 36 32 39 0 2 12 17 28 33 15
15 50 55 77 87 28 32 65 74 82 92 18 19 41 45 51 58 20 25 108 126 178 204 23
25 55 61 70 80 16 18 43 48 59 66 17 18 46 52 66 76 21 24 48 56 60 70 13 14
51 57 84 94 33 37 65 73 70 79 10 11 175 201 225 260 14 16 31 35 38 42 6 7
12 17 12 22 0 6 4 12 9 14 16 6 79 153 94 219 14 62 16 225 3 277 -57 241
-214 420 -438 498 -58 21 -97 27 -188 29 -63 2 -124 2 -135 -1z"/>
<path d="M7262 2053 c-57 -43 -273 -155 -322 -168 -59 -14 -55 -7 -56 -104 l0
-89 60 23 c109 41 168 72 219 113 16 12 32 22 36 22 4 0 7 -265 7 -590 -1
-386 2 -591 9 -592 6 0 45 -2 88 -2 62 -1 77 2 78 14 7 95 2 1403 -5 1408 -26
15 -62 4 -114 -35z"/>
<path d="M2508 2085 c-2 -2 -25 -6 -53 -9 -78 -10 -86 -13 -199 -66 -100 -47
-208 -158 -263 -270 -61 -125 -84 -234 -83 -390 1 -156 21 -246 81 -369 32
-64 60 -103 113 -156 118 -117 242 -171 412 -180 107 -5 233 10 277 32 15 7
27 11 27 8 0 -7 96 42 135 69 82 57 190 195 216 274 6 20 16 43 22 50 5 6 7
12 3 12 -3 0 -1 11 4 25 38 101 44 340 11 472 -67 271 -249 449 -501 490 -30
5 -198 11 -202 8z m159 -170 c202 -31 343 -198 370 -437 22 -194 -10 -371 -87
-482 -94 -137 -226 -199 -407 -190 -99 4 -96 4 -173 41 -138 67 -228 195 -260
372 -27 149 -4 339 53 446 108 200 280 285 504 250z"/>
<path d="M7881 2050 c-7 -17 -7 -111 1 -132 4 -10 68 -13 339 -12 184 1 338
-1 342 -3 4 -3 3 -10 -2 -17 -17 -21 -97 -171 -176 -331 -111 -227 -186 -415
-239 -600 -42 -145 -69 -272 -62 -284 3 -4 44 -7 93 -6 86 0 88 1 91 25 5 46
44 225 59 275 82 266 148 429 282 695 65 127 80 156 133 248 28 49 35 152 10
153 -9 0 -208 2 -440 2 -368 2 -425 0 -431 -13z"/>
<path d="M3946 1683 c-2 -2 -18 -6 -36 -8 -17 -2 -45 -11 -62 -20 -17 -8 -35
-15 -40 -15 -5 0 -16 -7 -24 -15 -8 -8 -23 -20 -33 -27 -10 -7 -34 -35 -54
-61 l-37 -49 0 85 c0 97 5 92 -105 92 l-70 0 -1 -725 c-1 -405 2 -727 7 -730
7 -5 128 -5 162 -1 5 1 8 36 7 79 -1 42 -1 176 0 297 l1 220 20 -25 c53 -67
116 -111 181 -126 42 -10 160 -11 202 -2 161 35 292 181 333 372 14 66 20 245
9 291 -49 208 -134 314 -286 356 -42 11 -166 20 -174 12z m99 -158 c131 -41
193 -168 182 -371 -6 -115 -7 -120 -41 -197 -26 -59 -55 -93 -116 -136 -29
-21 -48 -25 -118 -28 -92 -3 -128 8 -187 53 -39 29 -80 92 -96 146 -13 44 -13
251 1 312 39 176 205 274 375 221z"/>
<path d="M4950 1673 c-205 -52 -347 -251 -352 -491 -2 -119 8 -185 39 -268 49
-127 140 -212 272 -253 67 -21 242 -22 326 -2 48 12 140 53 160 72 10 10 14
159 4 159 -3 0 -15 -9 -27 -20 -12 -11 -23 -20 -26 -20 -3 0 -30 -11 -60 -25
-130 -59 -297 -50 -392 22 -61 46 -114 160 -114 244 l0 26 339 1 c187 0 344 2
349 6 8 5 7 142 -2 211 -5 36 -32 118 -54 160 -37 74 -154 162 -240 180 -61
13 -168 12 -222 -2z m178 -139 c42 -8 99 -50 125 -92 26 -41 36 -72 42 -137
l5 -43 -261 -1 -261 0 7 36 c15 81 84 178 152 216 18 10 52 22 75 26 42 8 57
7 116 -5z"/>
<path d="M6096 1664 c-37 -12 -74 -28 -84 -35 -29 -22 -112 -111 -114 -123 -1
-6 -4 27 -7 74 l-6 85 -75 0 c-41 0 -81 -1 -87 -3 -10 -3 -13 -111 -13 -497 0
-385 3 -494 13 -497 6 -2 46 -4 87 -4 l75 1 5 335 5 335 27 50 c33 61 72 104
118 130 44 24 172 28 216 5 38 -20 83 -69 90 -100 4 -14 12 -31 18 -39 7 -9
12 -116 14 -325 1 -171 3 -329 5 -351 l2 -40 86 0 86 0 -2 365 c-2 338 -4 370
-23 428 -24 73 -61 131 -106 166 -81 61 -218 78 -330 40z"/>
</g>
</svg>
