<?xml version="1.0" standalone="no"?>
<!DOCTYPE svg PUBLIC "-//W3C//DTD SVG 20010904//EN"
 "http://www.w3.org/TR/2001/REC-SVG-20010904/DTD/svg10.dtd">
<svg version="1.0" xmlns="http://www.w3.org/2000/svg"
 width="3852.000000pt" height="3852.000000pt" viewBox="0 0 3852.000000 3852.000000"
 preserveAspectRatio="xMidYMid meet">
<metadata>
Created by potrace 1.14, written by Peter Selinger 2001-2017
</metadata>
<g transform="translate(0.000000,3852.000000) scale(0.100000,-0.100000)"
fill="#000000" stroke="none">
<path d="M18961 29224 c-1 -7 -15 -10 -36 -8 -19 1 -35 0 -35 -4 0 -4 -15 -7
-32 -7 -18 1 -42 -2 -54 -6 -11 -4 -36 -10 -55 -14 -48 -8 -52 -10 -66 -18 -7
-5 -13 -6 -13 -2 0 3 -16 -1 -35 -9 -19 -8 -35 -12 -35 -9 0 3 -6 0 -13 -6 -8
-6 -17 -8 -20 -4 -4 3 -7 0 -7 -7 0 -7 -3 -11 -6 -8 -3 4 -29 -4 -59 -17 -29
-13 -56 -21 -61 -17 -4 4 -4 1 0 -5 4 -7 2 -13 -4 -13 -6 0 -28 -11 -50 -25
-22 -14 -40 -22 -40 -18 0 5 -6 0 -13 -9 -8 -9 -20 -18 -28 -20 -8 -2 -20 -11
-27 -20 -7 -10 -17 -18 -22 -18 -9 0 -43 -26 -76 -57 -7 -7 -18 -13 -24 -13
-6 0 -8 -4 -5 -10 3 -5 2 -10 -4 -10 -13 0 -107 -93 -103 -102 1 -5 -6 -8 -15
-8 -9 0 -13 -3 -10 -6 3 -4 -5 -15 -18 -26 -14 -11 -22 -25 -18 -31 3 -7 3 -9
-2 -5 -7 7 -35 -14 -35 -26 0 -3 -20 -26 -44 -51 -24 -25 -42 -45 -39 -45 2 0
-14 -18 -37 -40 -23 -22 -39 -40 -36 -40 4 0 -11 -18 -31 -41 -55 -58 -104
-113 -138 -153 -16 -20 -47 -55 -69 -78 -21 -24 -45 -53 -53 -65 -8 -13 -19
-21 -23 -18 -5 3 -12 -4 -15 -16 -4 -11 -31 -45 -61 -75 -29 -30 -50 -54 -47
-54 3 0 -6 -11 -21 -25 -14 -13 -26 -29 -26 -35 0 -6 -4 -8 -10 -5 -5 3 -10 2
-10 -3 0 -5 -12 -22 -27 -37 -16 -16 -21 -25 -13 -20 8 5 -6 -11 -30 -36 -25
-24 -63 -66 -85 -92 -22 -26 -58 -65 -79 -87 -22 -22 -36 -40 -33 -40 3 0 -4
-10 -16 -23 -12 -13 -25 -22 -30 -19 -4 2 -6 0 -5 -5 3 -9 -82 -112 -134 -164
-16 -15 -28 -32 -28 -39 0 -6 -4 -9 -9 -5 -5 3 -12 -3 -16 -14 -3 -11 -12 -22
-20 -25 -8 -3 -15 -13 -15 -21 0 -9 -4 -13 -10 -10 -5 3 -10 2 -10 -3 0 -5
-18 -29 -40 -53 -22 -24 -53 -59 -68 -77 -15 -18 -48 -55 -74 -82 -25 -28 -44
-50 -42 -50 4 0 -29 -37 -108 -120 -26 -28 -45 -50 -42 -50 5 0 -6 -13 -83
-93 -24 -25 -43 -47 -43 -50 0 -4 -15 -21 -32 -40 -28 -29 -59 -64 -157 -176
-9 -10 -41 -47 -71 -82 -30 -35 -67 -77 -83 -92 -15 -16 -32 -38 -38 -48 -6
-11 -15 -17 -22 -13 -7 4 -9 4 -5 -1 4 -4 2 -13 -5 -19 -7 -6 -38 -40 -68 -76
-29 -36 -60 -69 -66 -73 -7 -4 -13 -12 -13 -17 0 -4 -21 -31 -47 -58 -27 -27
-66 -71 -88 -97 -22 -26 -53 -62 -70 -80 -16 -18 -46 -52 -65 -75 -19 -22 -48
-56 -65 -74 -16 -19 -50 -57 -75 -85 -25 -29 -60 -68 -77 -87 -18 -19 -33 -40
-33 -46 0 -6 -3 -8 -7 -5 -3 4 -17 -9 -30 -28 -13 -19 -29 -35 -35 -35 -6 0
-9 -3 -5 -6 5 -6 -14 -29 -120 -140 -28 -30 -49 -54 -46 -54 3 0 -6 -11 -20
-24 -14 -13 -23 -27 -20 -30 4 -3 -1 -6 -10 -6 -9 0 -17 -5 -17 -10 0 -10 -36
-53 -92 -112 -10 -10 -18 -23 -18 -29 0 -5 -4 -7 -10 -4 -5 3 -10 1 -10 -4 0
-6 -17 -29 -39 -51 -21 -22 -37 -40 -35 -40 2 0 -13 -18 -34 -39 -20 -22 -53
-58 -72 -81 -19 -23 -55 -64 -80 -91 -25 -27 -55 -61 -67 -76 -12 -15 -40 -48
-63 -73 -22 -25 -55 -62 -73 -83 -17 -21 -47 -53 -64 -72 -18 -19 -31 -35 -29
-35 2 0 -18 -22 -45 -50 -27 -27 -47 -50 -44 -50 3 0 -9 -15 -27 -34 -33 -34
-107 -118 -150 -169 -13 -15 -39 -45 -58 -66 -19 -21 -53 -60 -75 -86 -35 -41
-66 -76 -144 -161 -11 -12 -17 -24 -15 -27 3 -3 -4 -8 -15 -12 -12 -3 -19 -11
-16 -16 4 -5 2 -9 -3 -9 -6 0 -19 -15 -31 -32 -11 -18 -21 -29 -21 -24 0 5
-19 -16 -42 -45 -24 -30 -53 -62 -66 -73 -13 -10 -21 -20 -18 -23 3 -3 -16
-25 -42 -49 -25 -24 -43 -44 -39 -44 4 0 -7 -13 -23 -29 -17 -15 -30 -33 -30
-40 0 -6 -5 -11 -11 -11 -14 0 -39 -25 -39 -39 0 -6 -5 -11 -11 -11 -5 0 -7
-4 -4 -10 3 -5 -1 -10 -9 -10 -9 0 -16 -3 -16 -8 0 -4 -20 -28 -44 -55 -25
-26 -42 -47 -39 -47 4 0 -6 -10 -20 -23 -15 -12 -27 -28 -27 -35 0 -7 -4 -10
-10 -7 -5 3 -10 2 -10 -3 0 -5 -16 -27 -36 -48 -20 -22 -43 -49 -51 -61 -8
-13 -19 -20 -24 -17 -5 3 -9 0 -9 -6 0 -17 -36 -61 -44 -53 -3 3 -6 1 -6 -6 0
-13 -2 -16 -70 -90 -25 -27 -64 -71 -87 -98 -23 -26 -55 -64 -72 -83 -17 -19
-31 -39 -31 -43 0 -5 -5 -5 -12 -1 -6 4 -8 3 -5 -3 4 -6 0 -16 -8 -23 -8 -7
-12 -17 -8 -23 3 -6 1 -7 -5 -3 -7 4 -24 -15 -43 -49 -17 -30 -35 -55 -40 -55
-5 0 -9 -3 -8 -7 3 -18 -14 -52 -28 -57 -8 -3 -11 -11 -7 -17 3 -6 3 -14 -2
-18 -14 -9 -48 -84 -45 -98 1 -7 -2 -13 -8 -13 -5 0 -8 -8 -7 -17 2 -10 -3
-24 -11 -31 -7 -8 -11 -17 -8 -22 3 -5 1 -11 -4 -15 -6 -3 -8 -12 -4 -20 3 -8
0 -15 -5 -15 -6 0 -11 -8 -10 -17 0 -18 -9 -65 -18 -95 -9 -31 -14 -63 -19
-132 -3 -37 -8 -72 -10 -76 -3 -5 -1 -12 5 -15 8 -5 7 -11 -1 -21 -8 -10 -9
-18 0 -27 6 -8 8 -16 5 -20 -8 -8 -12 -57 -5 -57 3 0 6 -21 7 -48 1 -48 8 -97
19 -142 3 -14 7 -36 9 -50 3 -14 9 -37 14 -51 6 -15 8 -30 5 -33 -4 -3 0 -6 7
-6 7 0 11 -3 7 -6 -3 -4 0 -21 8 -39 7 -19 11 -36 7 -39 -3 -3 1 -6 8 -6 7 0
10 -3 7 -7 -4 -3 1 -15 10 -26 10 -11 12 -17 5 -13 -11 7 -11 4 0 -13 7 -12
16 -21 21 -21 4 0 5 -5 1 -11 -3 -6 -1 -15 5 -19 7 -4 13 -16 14 -28 0 -12 3
-19 6 -16 3 2 12 -10 21 -28 26 -54 54 -98 63 -98 4 0 7 -7 7 -15 0 -8 5 -15
10 -15 6 0 10 -4 10 -10 0 -20 168 -194 240 -249 25 -19 46 -38 48 -43 2 -4 8
-8 12 -8 5 0 29 -13 53 -30 25 -16 50 -30 56 -30 6 0 11 -4 11 -9 0 -8 37 -24
53 -22 4 1 7 -4 7 -11 0 -6 3 -8 6 -5 4 4 19 -2 33 -12 14 -10 28 -19 31 -19
3 0 22 -7 44 -16 21 -9 44 -16 50 -16 6 0 24 -7 40 -15 16 -9 31 -13 34 -11 2
3 15 1 29 -5 13 -5 36 -11 51 -14 15 -3 38 -7 52 -10 37 -8 88 -14 152 -19 31
-2 61 -7 67 -11 6 -3 11 -1 11 5 0 11 40 7 61 -6 7 -4 9 -3 6 2 -3 6 15 10 41
11 26 1 72 5 102 9 30 4 58 7 63 6 4 -1 7 3 7 9 0 5 4 7 10 4 5 -3 19 -1 31 6
17 9 20 8 13 -3 -6 -9 -3 -9 11 2 10 8 19 14 19 12 1 -2 15 2 31 9 17 7 40 11
53 10 12 -1 22 2 22 8 0 6 3 10 8 9 14 -3 92 25 92 34 0 5 5 6 10 3 6 -3 10
-1 10 6 0 7 3 9 7 6 3 -4 12 -2 20 4 7 6 13 8 13 5 0 -4 10 2 22 13 11 11 25
18 30 15 4 -3 8 -2 8 3 0 4 15 14 33 22 17 8 34 17 37 20 3 3 24 19 47 35 24
16 54 40 68 54 14 13 25 22 25 18 0 -3 37 32 83 79 98 101 157 165 157 172 0
2 16 19 35 37 19 19 35 36 35 39 0 6 33 43 122 138 20 21 34 39 32 39 -3 0 5
11 18 24 13 13 46 49 73 81 28 31 65 72 83 91 17 18 32 35 32 38 0 4 31 39 86
96 13 14 24 31 24 38 0 7 5 10 10 7 6 -3 10 -3 10 2 0 4 19 29 43 55 23 25 60
68 82 94 22 26 55 62 74 81 19 18 31 33 28 33 -4 0 11 17 33 39 22 21 40 41
40 44 0 4 20 27 44 52 24 25 42 45 40 45 -3 0 7 11 22 25 15 14 25 25 22 25
-3 0 21 28 53 62 32 34 55 66 52 71 -3 6 -2 7 4 4 9 -6 53 35 53 49 0 3 15 18
32 35 18 16 29 29 26 29 -4 0 9 17 30 39 55 57 132 143 132 147 0 2 12 16 28
32 15 16 52 57 82 92 30 35 67 76 83 92 15 15 27 29 27 32 0 2 16 21 35 42 19
20 35 41 35 46 0 5 5 6 10 3 6 -3 10 -1 10 5 0 7 11 24 24 38 14 15 43 47 65
71 23 24 41 47 41 52 0 5 7 9 16 9 8 0 13 4 9 9 -3 5 7 19 21 30 15 12 24 21
21 21 -3 0 10 16 29 36 19 20 34 41 34 47 0 6 3 7 7 4 3 -4 16 6 27 22 27 36
134 158 165 188 13 13 21 23 18 23 -3 0 7 13 21 28 67 70 112 123 112 133 0 6
5 7 10 4 6 -3 10 -1 10 4 0 6 20 31 44 55 24 25 41 47 38 50 -3 4 0 6 6 6 6 0
14 9 17 20 4 11 11 18 16 15 5 -4 9 -2 9 4 0 5 20 30 44 55 24 25 41 46 38 46
-3 0 7 11 22 25 14 13 26 30 26 36 0 7 3 10 6 6 4 -3 24 16 45 44 22 27 45 49
51 49 6 0 9 3 5 6 -3 3 8 19 24 35 16 16 28 29 25 29 -2 0 22 28 54 62 32 34
57 65 54 69 -2 4 5 10 16 14 11 3 20 10 20 15 0 5 12 22 28 38 27 29 95 106
169 191 21 25 47 55 58 67 11 12 40 45 65 74 25 29 57 67 72 84 15 17 28 35
28 39 0 5 5 5 10 2 6 -3 10 -2 10 3 0 5 16 26 35 47 19 21 32 42 29 47 -3 5
-1 7 4 6 5 -2 33 25 62 60 29 34 58 62 63 62 6 0 8 2 5 5 -7 7 108 125 122
125 6 0 8 5 5 10 -3 6 -3 10 2 10 4 0 24 14 43 31 37 32 142 103 200 135 19
10 37 22 38 27 2 4 12 7 23 7 10 0 19 5 19 11 0 6 7 9 15 5 8 -3 15 0 15 6 0
6 3 8 7 5 3 -4 15 0 25 10 10 9 18 13 18 8 0 -4 7 -1 17 6 9 8 19 13 22 13 7
-2 9 -1 66 17 43 14 57 17 95 24 14 2 25 4 25 5 0 7 118 22 182 24 29 0 53 3
53 6 0 3 35 4 78 2 42 -3 96 -5 119 -6 24 0 43 -3 43 -6 0 -4 10 -6 23 -7 40
-1 112 -15 117 -22 3 -5 13 -7 23 -5 9 1 17 -1 17 -5 0 -4 11 -8 26 -9 14 -1
33 -6 43 -12 10 -5 21 -6 25 -3 3 3 6 1 6 -6 0 -8 7 -11 15 -7 8 3 15 1 15 -4
0 -6 5 -10 10 -10 6 0 27 -7 48 -17 20 -9 40 -15 45 -15 4 1 7 -3 7 -9 0 -6 6
-9 14 -6 8 3 17 -1 20 -9 3 -8 15 -14 26 -14 11 0 20 -4 20 -10 0 -5 15 -16
34 -25 18 -9 42 -25 54 -35 11 -10 22 -16 26 -13 3 3 8 -2 12 -11 3 -9 10 -16
15 -16 23 0 273 -249 251 -250 -4 0 1 -5 11 -11 9 -5 17 -17 17 -24 0 -8 5
-15 10 -15 6 0 10 -7 10 -15 0 -7 6 -18 13 -22 6 -4 18 -18 25 -31 23 -42 76
-147 78 -154 1 -5 3 -11 4 -15 1 -5 2 -11 1 -15 0 -5 3 -8 7 -8 5 0 15 -19 22
-42 8 -24 18 -49 24 -57 8 -11 8 -13 -1 -8 -8 5 -7 -2 2 -21 8 -15 16 -37 18
-48 1 -10 5 -23 8 -29 3 -5 4 -20 3 -32 0 -13 2 -23 6 -23 4 0 7 -6 7 -12 0
-7 4 -47 9 -88 12 -117 8 -370 -8 -370 -3 0 -4 -9 -1 -20 3 -12 0 -20 -7 -20
-9 0 -10 -3 -1 -13 8 -10 7 -17 -1 -25 -7 -7 -9 -12 -5 -12 3 0 0 -18 -8 -39
-7 -22 -11 -42 -8 -45 4 -3 1 -6 -6 -6 -7 0 -10 -4 -6 -9 6 -10 -17 -77 -41
-123 -8 -16 -12 -28 -8 -28 3 0 1 -6 -5 -13 -6 -8 -8 -17 -4 -20 3 -4 1 -7 -5
-7 -7 0 -12 -6 -12 -14 0 -8 -6 -21 -13 -28 -7 -7 -14 -15 -15 -18 -5 -26 -24
-60 -32 -60 -6 0 -9 -4 -6 -9 4 -5 -5 -23 -19 -39 -14 -16 -25 -35 -25 -41 0
-6 -5 -11 -12 -11 -6 0 -9 -3 -6 -6 3 -3 -4 -16 -16 -28 -22 -24 -44 -52 -86
-107 -14 -18 -32 -41 -42 -50 -9 -10 -14 -20 -11 -23 3 -3 -2 -8 -11 -12 -9
-3 -16 -12 -16 -20 0 -8 -5 -14 -11 -14 -5 0 -7 -5 -4 -10 3 -6 -1 -13 -9 -16
-9 -3 -13 -10 -10 -15 3 -5 1 -9 -5 -9 -6 0 -13 -11 -17 -25 -3 -14 -10 -22
-15 -19 -5 3 -8 2 -7 -3 4 -14 -21 -73 -31 -73 -6 0 -8 -7 -5 -15 4 -8 2 -15
-3 -15 -5 0 -10 -6 -11 -12 -2 -26 -27 -88 -35 -88 -5 0 -5 -4 -2 -10 3 -5 3
-10 -2 -10 -4 0 -9 -10 -10 -23 -3 -31 -8 -50 -15 -62 -5 -9 -20 -84 -20 -102
0 -5 -5 -14 -11 -22 -10 -12 -9 -13 3 -6 12 7 13 6 4 -6 -30 -40 -23 -399 11
-519 2 -8 7 -31 10 -50 3 -19 11 -38 18 -42 6 -4 9 -10 5 -13 -7 -8 27 -108
48 -141 9 -13 13 -28 10 -33 -4 -5 -2 -12 4 -16 6 -4 22 -30 37 -58 14 -29 30
-55 35 -58 5 -3 9 -10 8 -14 -1 -4 7 -17 18 -30 11 -13 18 -26 15 -29 -4 -3 0
-6 7 -6 7 0 11 -3 7 -6 -5 -5 7 -21 53 -69 11 -12 20 -26 20 -33 0 -7 5 -10
10 -7 6 3 10 2 10 -3 0 -18 142 -149 219 -202 20 -14 38 -28 39 -32 2 -5 10
-8 17 -8 8 0 19 -8 24 -17 6 -10 11 -14 11 -9 0 5 9 1 20 -9 11 -10 20 -15 20
-11 0 4 13 -2 29 -13 15 -11 30 -18 33 -15 3 2 11 -2 18 -11 7 -8 20 -15 29
-15 9 0 26 -7 37 -15 12 -8 24 -11 28 -7 4 3 10 1 14 -6 5 -6 17 -13 27 -15
44 -9 81 -20 94 -31 12 -9 13 -8 6 4 -7 13 -6 13 7 2 9 -7 31 -14 49 -16 19
-2 41 -6 49 -10 8 -3 40 -7 70 -10 30 -3 55 -6 55 -6 0 -8 223 -4 233 3 8 6
12 5 12 -2 0 -7 5 -9 13 -4 6 4 26 9 42 10 17 1 41 4 55 8 14 3 39 8 55 10 17
2 30 4 30 5 0 2 38 11 53 12 6 1 12 5 12 10 0 4 5 8 11 8 5 0 7 -5 3 -11 -5
-8 -1 -8 14 0 12 6 24 16 27 21 4 6 10 8 15 5 5 -3 20 0 32 7 13 7 28 13 33
14 20 1 165 76 165 85 0 5 3 8 8 7 10 -4 92 44 92 54 0 4 6 8 14 8 8 0 24 11
37 25 13 13 29 25 34 25 6 0 19 11 29 25 10 13 22 22 27 19 5 -3 9 -2 9 3 0 4
27 36 60 71 33 34 60 67 60 73 0 5 5 7 10 4 6 -3 10 -3 10 2 0 4 21 31 48 60
26 28 61 68 77 89 55 67 82 93 90 86 5 -4 5 -2 2 4 -4 6 2 19 13 29 11 10 17
22 13 28 -3 5 -2 7 4 4 5 -3 20 8 34 25 25 31 47 56 112 127 21 22 35 41 32
41 -3 0 5 10 18 23 12 12 27 20 32 19 6 -2 7 -1 3 3 -6 6 5 21 67 91 11 12 43
48 70 80 103 118 131 150 162 181 17 18 28 33 25 33 -4 0 1 5 11 11 9 6 15 14
12 20 -4 5 1 9 9 9 9 0 16 4 16 9 0 5 21 30 47 57 25 27 47 51 47 54 1 3 4 4
9 2 4 -1 7 3 7 9 0 7 11 22 25 35 14 13 25 25 25 28 0 4 47 58 122 137 20 21
34 39 31 39 -2 0 13 18 34 39 66 68 91 99 85 105 -3 3 2 6 11 6 15 0 22 11 18
33 0 4 2 6 7 5 4 -2 25 17 47 42 44 51 76 86 133 148 22 23 38 42 34 42 -3 0
11 16 31 35 20 19 37 39 37 44 0 5 3 11 8 13 4 2 21 20 39 40 17 20 34 34 37
31 3 -4 6 -1 6 6 0 7 6 18 13 25 6 7 32 37 57 66 25 29 55 64 67 77 12 13 20
23 17 23 -3 0 2 7 10 16 19 19 67 89 85 127 8 15 18 27 22 27 4 0 10 13 14 29
3 16 13 35 21 41 7 7 11 16 8 21 -3 5 -1 9 3 9 5 0 9 10 10 22 1 11 7 24 13
28 7 4 11 11 11 16 -1 12 32 118 39 124 5 5 6 16 14 91 1 14 5 30 8 35 27 44
26 453 -1 474 -4 3 -6 15 -5 28 1 12 -4 22 -10 22 -6 0 -5 4 3 9 9 6 10 11 2
15 -6 4 -9 12 -6 17 4 5 2 9 -2 9 -5 0 -10 14 -11 32 -2 17 -6 36 -11 42 -9
12 -25 67 -23 79 1 4 -3 7 -10 7 -6 0 -9 3 -5 6 6 7 -93 207 -105 212 -5 2 -8
10 -8 17 0 7 -4 15 -8 17 -5 2 -27 31 -49 65 -22 35 -43 60 -46 56 -4 -3 -11
6 -16 21 -6 14 -15 26 -21 26 -6 0 -8 5 -5 10 3 6 2 10 -3 10 -6 0 -37 27 -71
60 -34 33 -66 60 -71 60 -5 0 -12 9 -15 20 -3 11 -11 20 -16 20 -6 0 -16 6
-23 13 -7 6 -42 37 -77 67 -34 30 -78 69 -96 87 -18 18 -33 30 -33 28 0 -2
-13 8 -28 23 -16 15 -57 52 -92 82 -35 30 -73 64 -86 75 -33 30 -125 110 -159
139 -16 14 -33 26 -37 26 -5 0 -8 7 -8 15 0 8 -4 15 -10 15 -5 0 -18 8 -28 18
-19 18 -120 106 -181 157 -19 17 -52 46 -73 66 -21 20 -38 35 -38 33 0 -2 -15
11 -34 29 -19 17 -53 48 -76 67 -23 19 -59 52 -81 73 -22 20 -44 37 -49 37 -6
0 -10 7 -10 17 0 9 -3 14 -6 10 -3 -3 -18 5 -32 19 -15 13 -30 24 -35 24 -4 0
-5 5 -2 10 3 6 -1 10 -9 10 -9 0 -16 5 -16 10 0 6 -7 10 -16 10 -8 0 -13 4
-10 8 3 5 -4 15 -16 23 -11 8 -35 28 -52 44 -17 17 -54 48 -81 70 -27 22 -66
56 -87 75 -20 19 -55 51 -78 70 -22 19 -56 49 -74 65 -18 17 -59 52 -91 80
-32 27 -73 63 -90 80 -18 16 -50 44 -71 62 -21 17 -53 44 -71 60 -17 15 -59
53 -93 83 -35 30 -69 61 -76 68 -7 6 -17 12 -23 12 -5 0 -12 8 -15 18 -3 10
-18 25 -33 34 -16 9 -51 38 -80 65 -28 26 -72 66 -98 88 -26 22 -61 52 -78 68
-17 15 -34 27 -39 27 -4 0 -8 7 -8 16 0 8 -4 13 -8 10 -5 -3 -15 4 -22 15 -8
10 -20 19 -28 19 -7 0 -10 5 -7 10 3 6 3 10 -2 10 -4 0 -23 14 -42 30 -18 17
-38 30 -42 30 -5 0 -9 6 -9 13 0 8 -11 19 -25 25 -14 7 -28 19 -31 27 -4 8
-10 15 -16 15 -14 0 -38 27 -31 34 4 3 0 6 -8 6 -8 0 -35 20 -60 43 -25 23
-70 62 -99 87 -29 25 -69 61 -90 80 -20 19 -61 55 -90 80 -29 25 -65 56 -81
70 -15 14 -51 45 -80 70 -29 25 -68 60 -86 78 -19 17 -37 32 -39 32 -3 0 -20
15 -38 33 -19 17 -50 46 -69 62 -108 92 -154 133 -180 158 -16 15 -33 27 -38
27 -6 0 -7 5 -4 10 3 6 1 10 -6 10 -6 0 -22 10 -34 23 -12 12 -46 42 -75 67
-29 25 -67 59 -86 75 -52 46 -63 55 -69 55 -4 0 -13 7 -21 15 -9 8 -12 15 -7
15 4 0 -10 9 -31 21 -22 11 -45 27 -53 34 -7 8 -22 17 -33 20 -11 3 -20 11
-20 16 0 6 -4 7 -10 4 -5 -3 -10 -2 -10 4 0 5 -13 12 -30 16 -16 4 -32 11 -35
16 -8 11 -73 42 -91 42 -8 0 -14 3 -14 7 0 4 -20 13 -45 20 -25 7 -48 17 -51
22 -3 4 -10 6 -15 2 -5 -3 -15 -2 -22 3 -7 4 -21 8 -32 8 -11 0 -22 3 -25 6
-3 4 -23 10 -45 13 -22 2 -51 7 -65 10 -14 4 -53 8 -87 10 -34 3 -67 7 -73 11
-5 3 -10 2 -10 -3 0 -5 -7 -9 -15 -9 -8 0 -15 4 -15 9 0 5 -10 3 -22 -3 -16
-9 -23 -9 -26 -1 -2 8 -9 9 -22 2 -13 -7 -20 -6 -23 3 -4 8 -6 8 -6 1z"/>
<path d="M24927 22643 c-4 -6 -15 -10 -24 -9 -10 2 -36 -1 -58 -6 -22 -6 -51
-12 -65 -15 -36 -7 -43 -9 -64 -18 -10 -4 -31 -8 -46 -9 -15 -1 -26 -4 -23 -8
2 -5 -5 -8 -16 -8 -11 0 -23 -5 -26 -10 -4 -6 -11 -8 -16 -5 -5 4 -9 1 -9 -4
0 -6 -7 -11 -16 -11 -8 0 -25 -5 -37 -12 -12 -7 -28 -13 -35 -14 -8 -1 -22
-10 -31 -18 -10 -9 -21 -13 -24 -9 -4 3 -7 1 -7 -5 0 -7 -5 -12 -10 -12 -20 0
-160 -97 -153 -105 5 -4 3 -5 -3 -2 -6 4 -30 -12 -53 -34 -22 -22 -41 -37 -41
-32 0 4 -8 -4 -18 -20 -10 -15 -20 -26 -23 -24 -2 1 -20 -15 -40 -35 -21 -21
-35 -38 -33 -38 3 0 -5 -10 -18 -23 -48 -49 -143 -161 -141 -166 1 -3 -8 -11
-20 -18 -12 -6 -20 -14 -17 -16 3 -3 -7 -15 -23 -27 -15 -12 -24 -27 -20 -33
3 -7 3 -9 -2 -5 -7 7 -35 -14 -35 -27 0 -4 -18 -24 -40 -45 -22 -21 -40 -42
-40 -47 0 -5 -13 -20 -30 -33 -16 -14 -29 -31 -30 -38 0 -7 -4 -10 -10 -7 -5
3 -10 0 -10 -7 0 -7 -14 -27 -32 -43 -17 -17 -44 -47 -58 -67 -15 -21 -30 -34
-34 -31 -3 3 -6 1 -6 -4 0 -6 -16 -28 -35 -47 -19 -20 -35 -39 -35 -42 0 -2
-12 -17 -26 -32 -73 -76 -134 -144 -134 -149 0 -2 -12 -17 -27 -33 -16 -16
-46 -50 -68 -75 -22 -26 -57 -65 -77 -86 -20 -21 -34 -39 -32 -39 3 0 -6 -11
-20 -23 -14 -13 -24 -26 -21 -29 3 -2 -6 -11 -20 -18 -14 -7 -25 -17 -25 -22
0 -8 -15 -26 -106 -124 -23 -24 -39 -44 -35 -44 3 0 -11 -15 -31 -34 -20 -19
-35 -36 -32 -38 2 -3 -9 -15 -26 -28 -16 -13 -30 -27 -30 -31 0 -13 -37 -48
-44 -41 -3 3 -6 -2 -6 -11 0 -8 -12 -25 -26 -36 -15 -12 -24 -21 -20 -21 4 0
-11 -18 -34 -41 -22 -22 -40 -44 -40 -48 0 -3 -13 -18 -30 -33 -16 -14 -26
-28 -23 -32 4 -4 -3 -9 -15 -13 -12 -3 -22 -11 -22 -17 0 -6 -8 -19 -17 -27
-10 -9 -38 -40 -63 -69 -25 -29 -60 -69 -77 -87 -18 -19 -33 -39 -33 -44 0 -6
-4 -7 -10 -4 -5 3 -10 2 -10 -4 0 -10 -30 -46 -97 -117 -17 -19 -29 -34 -26
-34 3 0 -9 -12 -26 -27 -17 -15 -31 -31 -31 -36 0 -4 -18 -25 -40 -47 -22 -22
-40 -42 -40 -45 0 -2 -14 -18 -31 -35 -18 -16 -29 -30 -26 -30 3 0 -18 -24
-46 -54 -29 -29 -65 -71 -82 -92 -16 -21 -49 -58 -72 -82 -24 -25 -43 -47 -43
-51 0 -4 -12 -18 -27 -32 -31 -28 -83 -86 -83 -93 0 -3 -20 -25 -45 -50 -25
-25 -42 -46 -39 -46 3 0 -9 -15 -28 -33 -18 -19 -53 -57 -78 -86 -25 -30 -60
-69 -78 -87 -19 -19 -32 -34 -29 -34 3 0 -9 -15 -27 -33 -17 -18 -44 -49 -60
-69 -17 -20 -34 -34 -39 -31 -6 3 -7 2 -4 -3 3 -6 -23 -41 -58 -79 -35 -38
-62 -72 -59 -77 3 -4 -1 -8 -10 -8 -8 0 -16 -4 -18 -9 -4 -12 -70 -89 -125
-147 -23 -24 -40 -44 -38 -44 2 0 -8 -13 -23 -29 -15 -15 -52 -57 -82 -92 -30
-35 -65 -73 -77 -85 -13 -12 -23 -26 -23 -33 0 -6 -7 -11 -17 -11 -9 0 -14 -3
-10 -6 3 -4 1 -12 -6 -19 -7 -7 -39 -43 -72 -81 -33 -37 -79 -87 -102 -111
-24 -24 -43 -49 -43 -55 0 -6 -2 -9 -5 -6 -3 3 -27 -14 -53 -39 -26 -24 -59
-52 -74 -61 -16 -9 -28 -20 -28 -24 0 -4 -7 -8 -15 -8 -8 0 -15 -4 -15 -10 0
-5 -7 -10 -15 -10 -8 0 -15 -4 -15 -8 0 -9 -71 -47 -82 -44 -5 1 -8 -2 -8 -8
0 -5 -7 -10 -15 -10 -9 0 -18 -6 -21 -14 -3 -8 -12 -12 -20 -9 -8 3 -14 0 -14
-7 0 -6 -4 -9 -9 -5 -5 3 -12 1 -16 -5 -3 -5 -15 -10 -26 -10 -10 0 -19 -4
-19 -10 0 -5 -11 -10 -25 -10 -14 0 -25 -4 -25 -10 0 -5 -7 -7 -15 -4 -8 4
-15 2 -15 -4 0 -5 -10 -9 -22 -8 -13 1 -33 -4 -44 -11 -12 -8 -35 -15 -53 -16
-17 -1 -31 -5 -31 -9 0 -4 -7 -5 -15 -2 -8 3 -20 2 -26 -2 -37 -22 -469 -25
-469 -3 0 4 -13 5 -30 4 -16 -1 -30 1 -30 5 0 4 -11 6 -25 5 -14 -2 -25 1 -25
6 0 5 -8 9 -18 9 -10 0 -22 3 -25 6 -4 4 -19 8 -34 9 -16 2 -44 10 -63 18 -19
8 -38 16 -42 16 -5 1 -37 17 -73 36 -36 19 -63 29 -59 23 4 -6 -4 -3 -18 8
-14 10 -23 23 -20 28 3 5 -1 6 -8 1 -7 -4 -15 -3 -19 2 -3 5 -24 20 -46 33
-22 13 -45 29 -52 35 -6 5 -26 21 -44 35 -18 14 -57 48 -86 76 -28 29 -54 49
-57 46 -4 -3 -6 0 -6 6 0 7 -16 29 -35 49 -19 20 -38 45 -41 55 -3 10 -10 16
-15 13 -5 -4 -9 1 -9 9 0 8 -8 23 -18 33 -11 10 -25 33 -33 51 -8 17 -17 32
-21 32 -5 0 -8 7 -8 15 0 8 -4 15 -10 15 -5 0 -10 9 -10 20 0 11 -5 20 -10 20
-6 0 -9 3 -8 8 1 4 -10 32 -24 62 -29 62 -43 101 -40 113 1 4 -2 7 -7 7 -6 0
-10 8 -10 18 0 9 -9 50 -20 90 -11 41 -22 92 -25 114 -3 23 -8 43 -11 46 -3 3
0 11 6 19 8 9 8 13 1 13 -15 0 -12 282 2 292 7 5 7 8 -2 8 -9 0 -10 5 -4 18 5
9 7 23 5 30 -3 6 -1 12 4 12 4 0 8 17 8 38 -1 20 2 42 6 47 4 6 10 23 13 38 2
15 7 30 10 35 3 5 7 19 9 33 9 45 12 54 25 67 7 8 10 18 7 23 -4 5 -2 9 3 9 5
0 9 7 10 15 1 8 3 22 4 30 1 8 5 15 10 15 4 0 8 9 8 19 0 11 5 23 10 26 6 4
17 21 25 38 25 52 49 91 67 108 10 9 14 19 10 23 -4 4 1 12 11 17 9 6 17 17
17 26 0 9 3 13 7 10 3 -4 16 7 27 25 47 70 53 78 59 71 4 -3 7 1 7 10 0 10 4
17 8 17 4 0 19 18 32 40 14 22 29 40 33 40 5 0 6 4 3 9 -3 5 1 11 9 15 8 3 15
12 15 21 0 8 5 15 10 15 6 0 10 5 10 11 0 6 9 24 21 40 11 16 18 29 15 29 -4
0 5 18 19 40 14 22 23 40 21 40 -3 0 8 29 24 65 16 36 27 65 23 65 -3 0 0 6 6
13 6 8 8 17 4 20 -3 4 -1 13 6 20 6 8 12 26 13 41 1 14 5 26 9 26 3 0 5 10 4
23 -1 12 0 26 3 32 4 5 7 16 8 25 1 8 4 32 8 53 4 28 2 36 -7 30 -7 -4 -7 0 2
10 17 21 19 280 2 300 -8 10 -7 17 1 25 8 8 9 12 1 12 -6 0 -10 8 -9 18 2 9
-1 31 -5 47 -5 17 -11 46 -14 65 -3 19 -10 39 -14 45 -5 5 -7 18 -6 28 2 9 -2
17 -8 17 -5 0 -8 3 -4 6 5 5 -7 44 -38 119 -5 11 -9 23 -9 27 -1 4 -7 13 -13
20 -7 6 -13 18 -13 25 0 7 -4 13 -10 13 -5 0 -7 7 -4 15 4 8 2 15 -3 15 -6 0
-18 18 -28 40 -10 22 -22 40 -26 40 -4 0 -10 8 -14 19 -3 10 -13 28 -23 39 -9
11 -37 47 -62 80 -25 33 -55 66 -67 73 -12 7 -20 16 -17 21 3 4 1 8 -4 8 -5 0
-27 18 -50 40 -22 22 -43 40 -46 40 -3 0 -14 7 -23 16 -45 39 -79 64 -90 64
-7 0 -13 4 -13 9 0 5 -13 14 -30 21 -16 7 -30 17 -30 22 0 5 -4 6 -10 3 -5 -3
-10 -1 -10 5 0 6 -4 8 -10 5 -5 -3 -10 -2 -10 3 0 5 -10 13 -22 17 -13 4 -25
8 -28 9 -3 2 -27 12 -53 24 -27 12 -55 22 -63 22 -8 0 -14 4 -14 8 0 5 -7 9
-15 10 -8 1 -22 3 -30 4 -8 1 -15 4 -15 8 0 3 -8 6 -17 7 -30 2 -72 11 -81 17
-11 6 -64 15 -147 23 -33 3 -66 10 -74 17 -10 7 -13 7 -8 0 4 -7 -8 -10 -33
-10 -22 0 -40 5 -40 11 0 5 -4 4 -9 -3 -4 -8 -12 -14 -16 -14 -4 0 -12 6 -16
14 -5 7 -9 8 -9 3 0 -6 -10 -11 -22 -12 -94 -3 -127 -7 -123 -14 3 -4 -4 -5
-15 -2 -11 3 -28 -1 -37 -8 -14 -12 -16 -12 -8 0 6 11 5 12 -6 5 -8 -4 -23 -9
-34 -10 -26 -2 -137 -34 -150 -44 -5 -4 -18 -6 -27 -5 -10 2 -18 -1 -18 -6 0
-5 -5 -9 -11 -9 -5 0 -31 -10 -57 -21 -26 -12 -49 -22 -52 -21 -3 0 -17 -9
-32 -19 -14 -10 -29 -19 -33 -19 -11 0 -158 -101 -167 -114 -4 -6 -8 -8 -8 -4
0 4 -17 -9 -37 -30 -21 -20 -39 -36 -40 -34 -6 5 -41 -37 -36 -42 4 -3 1 -6
-5 -6 -6 0 -28 -18 -49 -41 -21 -23 -46 -48 -55 -57 -10 -9 -18 -21 -18 -27 0
-5 -13 -19 -29 -30 -16 -10 -28 -23 -25 -27 3 -4 -5 -12 -16 -18 -11 -6 -20
-15 -20 -20 0 -5 -20 -29 -45 -54 -25 -26 -45 -48 -45 -51 0 -2 -15 -20 -32
-39 -18 -19 -51 -56 -73 -82 -22 -26 -57 -64 -77 -86 -21 -21 -35 -38 -33 -38
4 0 -29 -38 -102 -118 -18 -19 -33 -39 -33 -45 0 -6 -3 -7 -7 -4 -3 4 -17 -9
-30 -28 -13 -19 -28 -35 -33 -35 -6 0 -10 -6 -10 -13 0 -7 -9 -19 -20 -27 -11
-8 -20 -20 -20 -28 0 -7 -4 -10 -10 -7 -5 3 -10 2 -10 -3 0 -9 -71 -92 -123
-144 -15 -15 -24 -28 -20 -28 4 0 -3 -7 -15 -16 -12 -8 -19 -21 -16 -27 4 -7
4 -9 0 -5 -7 6 -66 -46 -66 -58 0 -4 -25 -33 -97 -110 -18 -19 -30 -34 -27
-34 3 0 -6 -11 -20 -23 -14 -13 -23 -27 -20 -30 3 -3 -4 -8 -15 -12 -12 -3
-21 -10 -21 -15 0 -5 -17 -27 -37 -49 -21 -21 -54 -58 -73 -81 -19 -23 -48
-56 -65 -74 -72 -80 -115 -131 -115 -138 0 -5 -7 -8 -16 -8 -8 0 -13 -4 -10
-8 3 -5 -3 -15 -12 -24 -27 -23 -93 -98 -88 -98 3 0 -11 -17 -32 -38 -20 -22
-59 -65 -87 -98 -27 -32 -65 -73 -82 -92 -18 -18 -33 -37 -33 -42 0 -6 -4 -10
-10 -10 -5 0 -10 -7 -10 -16 0 -8 -3 -13 -7 -11 -10 6 -34 -19 -26 -27 4 -3 1
-6 -5 -6 -6 0 -14 -9 -17 -20 -4 -11 -11 -18 -16 -15 -5 4 -9 0 -9 -8 0 -7 -9
-23 -19 -34 -11 -12 -17 -23 -15 -26 3 -3 -3 -14 -13 -24 -10 -10 -29 -41 -43
-68 -14 -28 -29 -53 -35 -57 -5 -4 -7 -8 -2 -8 4 0 -2 -17 -13 -37 -11 -21
-20 -46 -20 -55 0 -10 -4 -18 -10 -18 -5 0 -7 -7 -4 -15 4 -8 1 -15 -6 -15 -7
0 -10 -7 -6 -15 3 -8 2 -15 -2 -15 -4 0 -9 -14 -10 -32 -2 -18 -6 -35 -10 -38
-4 -3 -8 -14 -9 -25 -1 -11 -4 -31 -7 -44 -21 -91 -27 -316 -12 -436 4 -33 7
-68 7 -77 0 -10 4 -18 8 -18 4 0 8 -17 9 -37 2 -21 7 -42 12 -47 5 -5 6 -15 3
-22 -3 -8 0 -14 7 -14 6 0 8 -5 5 -10 -4 -6 -3 -16 2 -23 5 -7 15 -30 22 -52
42 -133 222 -425 261 -425 5 0 7 -6 5 -12 -3 -7 8 -22 25 -33 16 -11 30 -26
30 -32 0 -7 4 -13 9 -13 5 0 37 -27 71 -60 34 -33 64 -60 66 -60 5 0 58 -47
122 -107 18 -18 36 -33 39 -33 3 0 16 -10 28 -22 12 -13 44 -41 69 -63 26 -22
59 -52 73 -67 15 -16 30 -28 35 -28 14 0 38 -27 31 -34 -4 -3 -1 -6 6 -6 7 0
28 -15 46 -32 18 -18 52 -49 76 -68 24 -19 58 -49 76 -67 18 -17 33 -30 33
-27 0 3 20 -14 113 -101 27 -25 53 -45 58 -45 6 0 7 -4 4 -10 -3 -5 0 -10 7
-10 8 0 21 -8 29 -17 9 -10 44 -43 79 -73 35 -30 76 -66 92 -80 15 -14 49 -43
74 -65 26 -22 60 -52 76 -67 15 -15 28 -25 28 -23 0 3 15 -10 34 -28 39 -37
139 -126 176 -157 14 -11 38 -33 54 -48 16 -15 31 -26 33 -25 1 2 23 -18 48
-43 25 -26 45 -44 45 -40 0 3 22 -16 49 -42 27 -26 63 -58 79 -72 44 -37 140
-121 171 -150 15 -14 54 -47 86 -75 32 -27 74 -65 92 -82 19 -18 36 -33 39
-33 3 0 25 -19 114 -100 15 -14 53 -47 85 -75 32 -27 67 -58 77 -67 10 -10 23
-18 30 -18 6 0 8 -3 5 -6 -4 -4 14 -23 38 -42 25 -19 45 -39 45 -43 0 -5 5 -9
10 -9 6 0 21 -10 34 -22 20 -20 96 -87 175 -155 14 -13 30 -23 34 -23 5 0 5
-4 2 -10 -3 -5 -3 -10 2 -10 10 0 62 -42 120 -97 24 -24 49 -43 54 -43 6 0 7
-4 4 -10 -3 -5 0 -10 8 -10 7 0 23 -10 34 -22 11 -13 47 -45 79 -73 31 -27 69
-61 83 -74 14 -13 43 -37 64 -55 21 -17 58 -49 82 -71 91 -84 116 -105 125
-105 5 0 12 -9 15 -20 4 -11 11 -18 16 -15 5 4 12 -1 15 -9 3 -9 13 -16 21
-16 8 0 12 -4 9 -8 -3 -5 8 -16 25 -26 16 -9 27 -22 24 -27 -4 -5 0 -9 8 -9 8
0 32 -17 54 -37 79 -75 124 -113 133 -113 5 0 12 -9 15 -21 4 -11 9 -18 12
-15 3 2 17 -6 31 -20 15 -13 30 -24 35 -24 4 0 5 -4 2 -10 -3 -5 -1 -10 5 -10
6 0 21 -10 34 -22 13 -13 49 -45 81 -73 31 -27 64 -57 73 -66 10 -8 37 -30 62
-49 25 -19 47 -37 50 -40 3 -3 26 -19 52 -35 27 -17 48 -34 48 -38 0 -5 4 -6
9 -3 5 3 14 -1 21 -9 7 -8 16 -12 21 -9 5 3 9 1 9 -4 0 -5 18 -15 39 -22 22
-7 42 -19 45 -27 3 -8 10 -12 15 -9 4 3 27 -3 49 -14 23 -11 48 -20 56 -20 8
0 18 -5 21 -11 4 -6 13 -8 21 -5 7 3 16 1 20 -5 3 -6 12 -8 19 -5 7 2 26 -4
44 -15 17 -10 31 -15 31 -10 0 6 12 6 31 1 58 -17 143 -24 269 -23 123 0 234
8 249 18 7 3 34 10 88 19 7 1 15 5 19 8 3 4 13 4 22 1 11 -5 13 -3 7 7 -5 9
-4 11 4 6 6 -4 17 -3 24 2 7 6 15 11 20 11 44 5 87 21 87 33 0 5 4 7 9 4 5 -3
53 17 106 44 54 28 94 50 89 50 -5 0 5 7 22 16 18 8 41 24 52 35 12 10 24 19
27 19 4 0 21 12 38 28 52 46 208 202 202 202 -3 0 15 20 39 45 25 25 43 45 40
45 -3 0 12 18 33 39 21 21 56 60 78 86 22 26 53 61 68 76 16 16 26 29 23 29
-2 0 17 23 44 50 27 28 47 50 44 50 -3 0 8 13 23 28 45 46 104 112 99 112 -2
0 18 23 45 50 27 28 47 50 45 50 -5 0 69 83 117 132 15 15 26 28 23 28 -3 0
15 20 40 45 24 25 41 45 38 45 -3 0 6 11 20 24 15 13 26 29 26 35 0 7 3 10 8
8 4 -3 13 1 20 9 7 8 9 14 5 14 -4 0 0 5 10 11 9 6 14 15 11 21 -4 7 -2 8 5 4
6 -4 14 0 18 9 3 10 24 35 45 56 22 21 36 39 32 39 -3 0 5 9 20 21 14 11 26
27 26 35 0 8 5 12 10 9 6 -3 10 -2 10 3 0 5 20 30 45 56 25 25 43 46 40 46 -2
0 11 16 30 36 19 20 35 40 35 45 0 6 4 8 9 4 5 -3 12 3 16 14 3 11 13 22 21
25 8 3 12 10 9 16 -3 5 1 10 9 10 9 0 16 4 16 9 0 4 15 25 34 45 19 20 33 36
30 36 -3 0 1 6 8 14 7 8 16 12 21 9 4 -2 7 1 7 6 0 14 30 50 156 184 14 15 22
27 19 27 -3 0 7 12 22 26 15 15 27 30 25 35 -1 5 5 9 13 9 8 0 15 4 15 8 0 4
17 27 38 49 20 23 53 61 72 83 19 23 45 51 57 62 12 12 20 25 17 30 -3 4 2 8
10 8 9 0 16 3 16 8 0 4 17 26 38 49 82 91 96 108 94 116 -1 4 5 7 15 7 9 0 14
3 10 6 -3 3 9 20 27 37 18 18 40 44 50 59 10 15 22 25 27 22 5 -3 9 4 9 16 0
12 5 18 10 15 6 -3 10 1 10 10 0 9 5 13 10 10 6 -3 10 -2 10 3 0 9 15 27 71
89 16 18 29 37 29 43 0 5 6 9 13 7 6 -1 11 4 10 11 -2 6 1 12 7 12 5 0 25 21
45 46 19 26 35 43 35 38 1 -5 8 3 16 19 8 15 19 27 24 27 5 0 12 9 15 20 4 11
11 18 16 15 5 -4 9 -1 9 5 0 6 12 23 28 39 42 43 92 101 87 101 -2 0 20 25 50
56 30 31 55 59 55 63 0 3 8 14 18 22 9 9 37 39 62 68 25 29 60 68 78 87 17 20
32 40 32 45 0 5 7 9 15 9 8 0 14 4 12 8 -1 4 10 20 26 35 15 15 27 32 27 37 0
6 8 10 17 10 9 0 14 3 10 6 -3 4 7 20 23 36 17 16 30 34 30 39 0 5 8 9 18 9
14 0 15 2 2 10 -10 6 -11 10 -2 10 6 0 21 9 32 20 11 11 17 20 14 20 -3 0 1 7
10 15 8 8 20 15 26 15 6 0 9 4 6 9 -4 5 8 21 25 35 17 14 27 26 22 26 -4 0 3
10 17 23 14 13 43 45 65 71 22 27 54 63 70 81 44 48 104 115 157 176 133 154
192 221 225 256 17 18 29 33 27 33 -2 0 11 15 31 34 19 19 35 37 35 40 0 3 16
22 35 42 19 19 35 40 35 45 0 6 4 8 8 5 5 -3 16 8 26 25 9 16 22 29 27 29 6 0
7 5 4 10 -3 6 1 10 9 10 9 0 15 3 14 8 -3 7 29 44 114 134 26 27 48 52 50 56
2 7 18 25 90 106 21 22 38 45 38 49 0 5 5 5 10 2 6 -3 10 -1 10 5 0 17 36 61
44 53 3 -3 6 0 6 7 0 7 11 23 25 36 14 13 25 26 25 29 0 4 22 29 50 56 27 27
47 49 44 49 -5 0 6 12 66 78 16 18 30 37 30 42 0 6 3 9 8 8 4 -2 9 2 11 7 3 6
17 21 33 35 15 13 28 30 28 37 0 6 9 14 20 18 11 3 19 9 18 13 -2 8 41 61 86
104 15 15 26 28 23 28 -3 0 9 15 26 34 58 60 107 116 107 121 0 11 35 42 43
38 4 -2 7 2 7 10 0 7 10 22 23 34 12 11 42 44 67 74 25 29 56 66 70 80 14 15
44 49 66 76 76 88 81 93 88 86 4 -4 4 1 0 11 -5 14 -4 17 4 12 7 -4 12 -3 12
1 0 5 18 29 40 53 22 24 40 51 40 59 0 8 3 12 6 8 8 -8 25 10 43 45 8 15 18
25 22 22 5 -3 11 7 15 21 3 14 9 25 13 25 5 0 20 22 35 50 15 27 31 52 36 55
5 3 7 12 4 20 -4 8 0 17 9 20 8 4 20 24 27 46 7 21 17 39 22 39 4 0 7 3 7 8
-3 16 14 72 22 72 5 0 8 3 8 8 -1 4 0 10 1 15 1 4 3 15 5 25 1 9 4 24 7 32 7
18 28 97 33 125 2 11 4 22 5 25 1 3 2 17 2 33 1 15 3 27 7 27 3 0 5 69 4 153
-3 199 -4 227 -16 227 -5 0 -5 6 2 13 6 8 7 17 2 23 -5 5 -11 23 -14 39 -6 40
-17 86 -24 105 -4 8 -7 17 -7 20 -11 46 -33 100 -40 100 -5 0 -7 3 -3 6 3 4
-5 28 -18 55 -14 27 -25 56 -25 64 0 9 -4 14 -8 11 -5 -3 -14 11 -21 30 -7 18
-17 34 -22 34 -6 0 -7 5 -4 10 3 6 3 10 -2 10 -4 0 -21 23 -38 50 -16 28 -33
50 -39 50 -5 0 -7 3 -4 6 4 3 -8 19 -24 35 -17 16 -28 29 -25 29 4 0 -12 20
-36 44 -23 24 -45 41 -49 39 -5 -2 -8 3 -8 11 0 9 -3 16 -8 16 -4 0 -21 12
-38 28 -62 55 -84 72 -94 72 -6 0 -10 5 -10 10 0 6 -7 10 -15 10 -8 0 -15 5
-15 10 0 6 -7 10 -15 10 -7 0 -19 8 -24 18 -6 9 -11 13 -11 8 0 -5 -6 -3 -14
3 -22 18 -173 91 -189 91 -8 0 -20 7 -27 15 -7 8 -16 12 -22 9 -5 -3 -15 -1
-22 5 -8 7 -18 11 -22 10 -5 -1 -12 0 -16 1 -5 1 -12 4 -18 5 -5 1 -11 3 -12
5 -12 8 -181 39 -190 34 -3 -2 -9 0 -13 6 -4 7 -12 7 -25 0 -10 -6 -21 -6 -24
-1 -7 11 -226 11 -248 0 -10 -6 -18 -5 -20 3 -3 9 -6 9 -11 1z"/>
<path d="M23301 11941 c-20 -14 -38 -28 -41 -32 -18 -25 -305 -199 -377 -228
-18 -7 -33 -17 -33 -22 0 -5 -6 -9 -14 -9 -7 0 -49 -17 -92 -37 -43 -21 -83
-38 -89 -38 -5 0 -16 -4 -22 -8 -7 -5 -13 -5 -13 0 0 4 -4 3 -8 -3 -10 -15
-100 -47 -112 -39 -5 3 -10 2 -10 -4 0 -5 -10 -11 -22 -13 -23 -3 -23 -5 -26
-186 -2 -181 -2 -183 18 -172 11 6 20 9 20 6 0 -7 113 34 128 46 6 6 12 7 12
3 0 -4 11 0 25 9 14 9 25 14 25 12 0 -6 203 93 210 103 3 3 10 7 16 8 18 3
136 83 179 121 7 6 17 12 22 12 4 0 8 -543 8 -1208 -1 -664 1 -1214 3 -1222 3
-13 29 -15 180 -15 l177 0 2 1455 c1 800 0 1462 -3 1470 -3 11 -19 15 -65 15
-49 0 -69 -5 -98 -24z"/>
<path d="M13458 11945 c-2 -2 -28 -5 -58 -9 -30 -4 -68 -9 -85 -12 -67 -10
-80 -13 -80 -14 0 -1 -8 -3 -17 -6 -10 -2 -26 -6 -35 -8 -10 -3 -18 -5 -18 -6
0 -1 -10 -3 -23 -6 -13 -2 -54 -17 -93 -34 -38 -16 -69 -26 -69 -22 0 4 -4 2
-8 -4 -4 -5 -23 -18 -42 -28 -84 -43 -96 -50 -116 -67 -11 -11 -24 -16 -27
-12 -4 3 -7 2 -7 -4 0 -6 -17 -22 -37 -35 -54 -36 -167 -151 -224 -228 -27
-36 -55 -73 -62 -83 -15 -18 -106 -198 -131 -257 -21 -51 -75 -245 -82 -299
-3 -25 -8 -55 -10 -66 -11 -55 -18 -184 -19 -305 0 -124 11 -306 19 -319 2 -3
7 -24 10 -45 17 -107 86 -318 122 -373 8 -12 14 -27 14 -32 0 -10 97 -170 110
-181 3 -3 25 -30 50 -60 111 -134 242 -240 387 -311 49 -24 93 -44 98 -46 6
-1 33 -10 61 -21 28 -11 69 -23 90 -27 21 -5 46 -10 54 -12 8 -2 26 -6 40 -8
14 -1 25 -4 25 -5 0 -3 44 -7 145 -15 47 -3 95 -8 108 -10 12 -3 22 -1 22 5 0
6 9 6 24 0 13 -5 26 -6 29 -4 3 3 36 7 74 9 37 3 79 6 93 9 14 2 45 7 70 10
47 7 114 23 140 33 8 3 23 8 33 9 64 13 284 122 295 147 2 4 8 7 14 7 9 0 76
48 106 77 7 7 18 13 23 13 5 0 9 7 9 17 0 9 3 14 6 10 4 -3 25 14 48 40 22 25
54 60 70 77 33 35 156 219 156 232 0 5 11 29 24 54 56 105 117 324 142 505 9
66 12 424 4 485 -28 218 -65 352 -142 518 -75 162 -233 360 -365 459 -21 15
-40 30 -43 33 -13 13 -91 60 -100 60 -5 0 -10 5 -10 10 0 6 -3 9 -7 8 -5 -1
-30 10 -58 24 -57 29 -165 69 -195 71 -11 1 -20 4 -20 8 0 4 -21 10 -46 14
-25 3 -56 8 -67 11 -57 12 -124 16 -264 18 -84 2 -154 2 -155 1z m292 -338
c19 -1 37 -5 40 -9 3 -4 21 -8 39 -10 18 -1 35 -6 37 -10 3 -4 15 -8 28 -8 12
0 41 -9 64 -20 22 -11 48 -20 56 -20 8 0 16 -3 18 -7 3 -9 106 -73 115 -73 12
0 170 -167 199 -210 28 -43 99 -182 115 -225 4 -11 12 -33 18 -50 11 -31 36
-144 46 -205 27 -173 26 -458 -3 -610 -28 -146 -30 -157 -58 -230 -114 -295
-308 -484 -581 -567 -32 -9 -66 -17 -75 -16 -10 0 -18 -3 -18 -7 0 -3 -16 -6
-36 -5 -19 0 -37 -2 -40 -6 -5 -9 -304 -9 -304 -1 0 4 -15 8 -33 10 -43 3 -60
6 -72 13 -5 4 -22 9 -37 13 -15 3 -40 11 -55 18 -15 6 -30 12 -33 13 -11 3
-95 48 -100 54 -3 3 -18 13 -34 21 -65 33 -206 190 -283 315 -25 40 -91 193
-98 228 -2 10 -7 27 -10 37 -6 19 -12 46 -21 90 -3 14 -7 32 -9 40 -28 100
-25 427 5 595 29 160 119 371 203 478 51 66 168 180 217 213 58 39 190 107
190 98 0 -3 7 -1 15 6 8 7 15 10 15 7 0 -3 16 1 35 9 19 8 35 11 35 7 0 -4 5
-2 11 4 6 6 18 9 25 6 8 -3 14 -1 14 4 0 5 15 8 33 8 17 -1 48 2 67 5 30 5
101 4 260 -3z"/>
<path d="M24483 11748 c0 -89 4 -158 9 -158 5 0 7 -4 4 -8 -2 -4 6 -8 20 -8
13 0 24 5 24 10 0 7 4 6 10 0 6 -6 31 -8 60 -4 28 4 50 3 50 -1 0 -4 16 -3 35
1 19 4 37 4 40 -1 3 -4 17 -4 30 1 14 5 25 6 25 1 0 -9 84 -6 100 4 5 3 10 2
10 -3 0 -6 14 -7 35 -2 19 4 37 4 40 -1 3 -4 17 -4 30 1 14 5 25 6 25 1 0 -9
84 -6 100 4 5 3 10 2 10 -3 0 -6 14 -7 35 -2 19 4 37 4 40 -1 3 -4 16 -4 30 1
13 5 25 5 27 1 2 -5 27 -5 56 -1 28 3 52 4 52 1 0 -3 58 -6 130 -6 71 0 130 4
130 8 0 5 5 5 12 1 18 -11 228 -10 228 1 0 6 4 3 10 -5 8 -13 -26 -86 -101
-215 -18 -30 -53 -95 -125 -235 -22 -41 -44 -82 -49 -90 -5 -8 -10 -20 -11
-26 -1 -6 -14 -29 -28 -52 -14 -23 -26 -44 -26 -46 0 -2 -32 -71 -71 -153 -78
-163 -165 -357 -211 -473 -16 -41 -36 -88 -43 -105 -31 -69 -167 -458 -181
-520 -2 -5 -14 -48 -28 -95 -26 -89 -70 -270 -80 -330 -3 -19 -8 -46 -11 -60
-7 -32 -18 -109 -19 -135 -1 -19 6 -20 186 -20 119 0 188 4 188 10 0 6 7 55
15 110 26 172 82 409 150 625 20 63 38 120 39 125 2 6 6 17 9 25 3 8 19 53 35
100 43 122 101 278 123 327 11 23 19 44 19 47 0 2 14 34 30 69 17 36 30 67 30
70 0 3 18 45 41 94 22 48 47 104 56 123 23 52 246 495 287 570 19 36 43 81 53
100 9 19 46 85 80 145 l63 110 0 113 0 112 -32 1 c-18 0 -429 1 -914 2 l-880
2 -1 -157z"/>
<path d="M16394 11121 c-2 -2 -14 -5 -27 -7 -12 -1 -23 -3 -24 -4 -4 -3 -12
-5 -60 -14 -24 -4 -43 -12 -43 -17 0 -6 -4 -8 -9 -5 -9 6 -134 -53 -139 -66
-2 -4 -10 -8 -18 -8 -8 0 -14 -4 -14 -10 0 -5 -6 -10 -12 -10 -7 0 -47 -35
-88 -79 -81 -84 -82 -86 -123 -146 l-27 -40 0 184 c0 159 -2 182 -15 177 -8
-3 -15 -1 -15 5 0 6 -8 5 -21 -2 -15 -8 -19 -8 -15 0 5 8 0 8 -18 1 -17 -6
-26 -6 -26 1 0 6 -6 6 -18 0 -11 -6 -24 -6 -35 0 -11 7 -17 7 -17 0 0 -7 -8
-7 -22 -2 -13 5 -33 5 -45 0 -14 -5 -23 -5 -23 2 0 6 -6 6 -18 0 -10 -5 -24
-6 -33 -1 -44 25 -43 80 -43 -1502 l0 -1493 165 -1 c91 0 170 -3 176 -7 5 -4
13 -4 17 0 3 3 6 282 6 620 0 337 4 613 8 613 4 0 16 -14 26 -31 19 -33 148
-169 160 -169 4 0 16 -9 28 -20 12 -10 25 -17 30 -14 4 3 8 1 8 -3 0 -18 192
-88 215 -79 7 2 16 2 20 -2 12 -13 172 -17 245 -7 69 10 94 14 110 18 8 3 30
8 48 12 17 4 32 12 32 17 0 5 4 6 10 3 5 -3 22 2 37 12 15 10 27 17 28 15 2
-21 161 87 227 155 184 187 283 416 314 723 7 69 7 285 0 335 -2 17 -7 55 -11
85 -25 192 -119 399 -240 529 -61 65 -174 147 -236 170 -19 7 -43 17 -54 22
-11 5 -29 11 -40 12 -11 2 -27 7 -35 10 -38 15 -334 30 -346 18z m136 -305 c8
-3 26 -7 40 -8 14 -2 31 -7 38 -11 6 -5 17 -5 22 -2 6 3 10 2 10 -3 0 -9 33
-22 46 -19 3 1 10 -6 15 -15 6 -10 15 -18 22 -18 21 0 147 -128 147 -149 0 -5
4 -11 8 -13 9 -4 59 -114 73 -161 21 -70 37 -185 38 -286 5 -314 -82 -573
-241 -716 -51 -46 -106 -81 -120 -77 -5 1 -8 -3 -8 -10 0 -6 -3 -8 -7 -5 -3 4
-11 3 -17 -2 -17 -14 -90 -31 -157 -37 -34 -3 -65 -5 -68 -6 -3 0 -8 0 -11 1
-3 1 -28 4 -57 6 -48 3 -114 19 -138 34 -5 3 -12 6 -15 6 -18 2 -83 41 -124
75 -103 86 -168 191 -202 330 -21 86 -13 543 11 630 66 237 239 408 460 452
64 13 205 16 235 4z"/>
<path d="M18587 11123 c-4 -3 -75 -14 -104 -16 -13 0 -23 -5 -23 -11 0 -5 -3
-7 -6 -3 -6 5 -103 -25 -127 -40 -6 -4 -17 -8 -22 -9 -41 -6 -219 -138 -277
-206 -21 -24 -49 -56 -63 -73 -15 -16 -33 -43 -42 -60 -9 -16 -19 -32 -23 -35
-28 -19 -121 -259 -134 -344 -4 -21 -8 -48 -11 -60 -16 -75 -22 -300 -11 -386
3 -19 7 -55 10 -80 11 -96 58 -248 106 -346 27 -56 55 -108 62 -115 8 -8 31
-36 53 -64 22 -27 47 -55 55 -61 8 -7 26 -22 40 -34 37 -34 151 -106 180 -115
14 -4 34 -13 45 -20 11 -6 45 -17 75 -24 30 -7 62 -15 70 -18 21 -8 51 -12
152 -18 48 -3 91 -5 95 -6 5 -1 10 -1 13 0 3 1 50 3 105 6 55 2 110 6 121 9
12 2 39 7 59 10 21 4 44 11 52 17 8 7 13 8 13 1 0 -6 17 -4 43 5 23 8 50 16
59 18 27 6 185 82 218 105 l30 21 0 160 c0 87 -3 159 -6 159 -3 0 -23 -13 -44
-30 -20 -16 -40 -27 -44 -23 -3 3 -6 1 -6 -5 0 -15 -187 -104 -245 -117 -11
-2 -43 -10 -71 -18 -28 -7 -67 -13 -87 -12 -21 0 -37 -2 -37 -5 0 -7 -179 -4
-235 4 -49 8 -65 11 -87 19 -27 10 -48 16 -53 16 -6 0 -68 34 -75 41 -3 3 -18
11 -33 19 -34 18 -133 118 -129 131 1 6 -2 10 -7 10 -13 0 -77 128 -94 190
-29 103 -44 244 -28 254 6 4 11 4 11 -1 0 -4 11 -8 25 -8 14 0 25 4 25 8 0 4
8 3 18 -2 11 -6 24 -6 35 0 9 6 17 6 17 2 0 -5 9 -9 20 -9 11 0 20 5 20 10 0
6 5 5 12 -2 7 -7 17 -8 28 -2 9 5 22 5 30 0 8 -5 22 -4 32 1 10 5 18 6 18 1 0
-4 9 -8 20 -8 11 0 20 4 20 9 0 5 6 5 13 -1 8 -7 18 -7 27 -2 8 5 18 6 23 3
15 -9 68 -10 73 -1 3 5 12 4 19 -2 7 -6 15 -7 18 -3 3 5 23 7 44 5 21 -1 44
-3 51 -2 6 0 18 0 25 0 6 1 27 -1 45 -3 18 -2 36 1 38 5 3 5 12 4 19 -2 10 -8
15 -8 20 0 5 8 10 8 20 0 10 -8 15 -8 20 0 5 8 10 8 20 0 7 -6 15 -7 18 -3 3
5 23 7 44 5 21 -1 44 -3 51 -2 27 0 38 0 67 -3 17 -1 35 1 42 6 6 4 14 3 18
-3 3 -6 12 -7 18 -3 15 9 47 12 47 4 0 -3 13 -6 30 -7 16 -1 27 3 23 8 -3 6 4
5 15 -1 14 -8 23 -8 27 -1 5 8 11 7 21 -1 11 -9 14 -8 14 2 0 9 3 10 8 4 8
-11 42 -16 42 -6 0 6 50 6 75 1 6 -1 22 -2 37 -1 l26 1 -3 166 c-2 92 -7 185
-10 208 -4 23 -9 55 -11 71 -21 142 -98 327 -176 425 -38 48 -58 69 -118 123
-47 42 -181 117 -209 117 -9 0 -21 4 -26 9 -6 6 -22 11 -37 13 -15 2 -30 7
-34 10 -3 4 -12 4 -20 1 -8 -3 -14 -1 -14 4 0 5 -12 8 -27 7 -16 -1 -32 1 -38
4 -10 6 -233 11 -238 5z m245 -309 c33 -8 71 -22 84 -31 13 -8 24 -11 24 -7 0
5 5 1 11 -8 5 -10 15 -18 21 -18 21 0 96 -86 131 -151 43 -79 66 -166 74 -269
l5 -77 -536 0 -537 0 6 31 c22 107 83 254 128 307 10 11 17 22 17 25 0 6 81
86 120 118 22 19 110 67 110 60 0 -4 6 -2 13 4 10 8 80 26 142 35 39 6 128 -3
187 -19z"/>
<path d="M20950 11119 c0 -3 -6 -6 -12 -6 -31 -2 -75 -10 -83 -15 -6 -3 -23
-8 -40 -12 -28 -7 -114 -45 -125 -56 -3 -3 -18 -12 -34 -20 -43 -22 -168 -146
-214 -213 -22 -31 -42 -52 -44 -45 -2 7 -3 82 -3 166 1 83 -2 152 -7 152 -5 0
-6 5 -2 11 5 8 1 8 -14 0 -14 -7 -23 -8 -27 -1 -4 7 -12 7 -23 1 -10 -6 -23
-6 -34 0 -12 6 -18 6 -18 0 0 -7 -8 -7 -22 -2 -13 5 -33 5 -45 0 -14 -5 -23
-5 -23 2 0 6 -6 6 -18 0 -11 -6 -24 -6 -35 0 -9 6 -17 6 -17 2 0 -10 -41 -10
-57 0 -5 4 -13 4 -17 0 -9 -9 -8 -2053 2 -2054 4 -1 86 -2 183 -3 l175 -1 0
595 c-1 507 2 652 18 750 19 120 112 270 221 356 40 31 126 76 155 79 8 2 29
6 45 10 64 16 233 7 271 -13 10 -6 36 -18 57 -27 90 -39 178 -165 211 -300 27
-111 29 -167 32 -800 1 -346 2 -635 3 -640 1 -7 64 -10 179 -10 l177 0 0 690
c-1 380 -4 719 -8 754 -26 216 -105 392 -226 504 -28 25 -51 44 -51 42 0 -2
-16 7 -36 20 -38 26 -126 61 -171 70 -16 3 -39 8 -53 11 -33 8 -270 11 -270 3z"/>
</g>
</svg>
