<?xml version="1.0" standalone="no"?>
<!DOCTYPE svg PUBLIC "-//W3C//DTD SVG 20010904//EN"
 "http://www.w3.org/TR/2001/REC-SVG-20010904/DTD/svg10.dtd">
<svg version="1.0" xmlns="http://www.w3.org/2000/svg"
 width="1080.000000pt" height="1080.000000pt" viewBox="0 0 1080.000000 1080.000000"
 preserveAspectRatio="xMidYMid meet">
<metadata>
Created by potrace 1.14, written by Peter Selinger 2001-2017
</metadata>
<g transform="translate(0.000000,1080.000000) scale(0.100000,-0.100000)"
fill="#000000" stroke="none">
<path d="M3605 9860 c-37 -18 -65 -28 -91 -35 -6 -2 -27 -10 -45 -18 -53 -24
-103 -44 -110 -43 -3 1 -13 -5 -22 -13 -10 -7 -17 -10 -17 -7 0 4 -13 -2 -30
-14 -16 -12 -30 -19 -30 -16 0 7 -340 -164 -369 -186 -13 -10 -27 -15 -32 -12
-5 3 -9 1 -9 -4 0 -5 -15 -17 -32 -26 -18 -9 -46 -26 -63 -36 -16 -11 -39 -24
-50 -30 -23 -12 -27 -14 -153 -97 -52 -35 -97 -63 -100 -63 -2 0 -19 -12 -37
-27 -18 -16 -73 -57 -121 -93 -49 -36 -95 -72 -104 -80 -9 -8 -34 -28 -55 -45
-22 -16 -45 -34 -51 -40 -6 -5 -37 -32 -69 -60 -147 -125 -348 -327 -485 -484
-30 -35 -64 -74 -75 -87 -12 -12 -32 -37 -45 -55 -14 -17 -52 -67 -85 -110
-104 -136 -125 -166 -125 -177 0 -7 -3 -12 -7 -12 -7 0 -57 -73 -118 -170 -12
-19 -30 -48 -41 -65 -10 -16 -24 -39 -30 -50 -6 -11 -21 -38 -34 -60 -80 -140
-171 -321 -240 -480 -36 -83 -131 -333 -135 -355 0 -3 -9 -30 -19 -60 -10 -30
-20 -62 -22 -70 -3 -8 -5 -15 -4 -15 1 0 -4 -13 -10 -30 -7 -16 -13 -37 -15
-45 -2 -8 -13 -51 -25 -95 -23 -85 -28 -105 -36 -145 -3 -14 -7 -32 -9 -40 -2
-8 -7 -28 -10 -45 -2 -16 -7 -41 -10 -55 -13 -57 -24 -118 -30 -160 -3 -25 -8
-56 -10 -70 -12 -77 -27 -202 -31 -254 -14 -199 -17 -267 -17 -416 0 -164 7
-349 18 -445 5 -43 10 -85 31 -247 5 -39 12 -78 19 -113 3 -16 10 -55 15 -85
6 -30 13 -66 16 -80 3 -14 7 -34 9 -45 4 -22 5 -26 35 -145 11 -47 24 -92 27
-100 3 -8 8 -24 10 -35 6 -27 9 -37 16 -55 5 -15 60 -181 62 -190 1 -3 7 -18
13 -33 7 -16 12 -33 12 -38 0 -5 9 -29 21 -53 11 -25 22 -51 23 -58 2 -7 8
-24 14 -38 6 -14 26 -61 45 -105 19 -44 47 -106 61 -137 15 -32 27 -61 27 -65
0 -5 6 -15 12 -23 7 -8 28 -46 47 -85 19 -38 38 -72 43 -73 4 -2 7 -12 7 -23
0 -10 4 -19 9 -19 5 0 11 -8 14 -18 13 -37 195 -331 224 -360 7 -7 13 -19 13
-27 0 -7 3 -15 8 -17 6 -3 46 -55 119 -157 130 -181 429 -508 613 -671 34 -30
70 -62 79 -71 19 -19 142 -122 190 -159 18 -14 40 -32 51 -40 10 -8 28 -22 40
-30 12 -8 28 -21 36 -27 7 -7 15 -13 19 -13 3 0 17 -11 31 -25 14 -14 31 -25
39 -25 8 0 15 -5 15 -10 0 -6 8 -14 18 -17 9 -4 22 -12 29 -17 35 -31 43 -36
43 -30 0 4 10 -2 22 -13 23 -20 108 -77 118 -78 3 0 26 -15 52 -33 26 -17 50
-32 53 -32 4 0 19 -8 33 -18 15 -11 56 -34 92 -53 36 -18 67 -36 70 -39 21
-22 473 -229 476 -218 0 2 7 -2 15 -9 8 -6 73 -32 144 -58 72 -26 139 -51 150
-55 18 -8 61 -22 75 -25 3 -1 46 -14 95 -29 89 -28 251 -73 290 -81 11 -2 38
-8 60 -14 22 -5 54 -13 70 -16 17 -3 35 -7 40 -9 16 -5 89 -19 105 -21 8 -1
31 -5 50 -9 19 -3 46 -8 60 -10 14 -3 25 -5 25 -6 0 -1 16 -3 35 -6 19 -2 49
-6 65 -9 17 -3 53 -8 80 -10 28 -3 66 -8 85 -11 19 -3 58 -7 85 -9 28 -2 88
-7 135 -11 134 -10 321 -13 316 -5 -3 4 -29 9 -58 10 -75 4 -185 15 -248 24
-19 3 -62 9 -95 12 -33 4 -69 9 -80 12 -11 2 -30 6 -42 8 -13 2 -42 7 -65 11
-24 5 -47 9 -53 10 -5 0 -21 3 -35 7 -14 3 -63 13 -110 22 -47 9 -116 25 -155
35 -38 10 -81 21 -95 24 -14 3 -41 10 -60 16 -19 6 -43 13 -53 15 -10 2 -32 9
-50 15 -18 5 -79 25 -137 44 -150 49 -317 112 -414 155 -42 19 -115 50 -119
50 -11 2 -399 203 -407 212 -3 3 -22 13 -42 22 -20 10 -43 23 -50 30 -7 7 -24
18 -38 25 -29 14 -28 13 -169 107 -59 38 -108 72 -111 75 -3 3 -25 19 -49 35
-36 24 -145 106 -216 162 -43 35 -195 165 -224 192 -121 113 -266 259 -331
331 -41 46 -87 96 -101 111 -14 16 -36 42 -50 60 -13 17 -32 41 -43 53 -30 34
-166 215 -166 221 0 3 -8 14 -17 24 -33 36 -43 50 -43 60 0 6 -6 14 -13 18 -6
4 -21 24 -31 43 -11 19 -22 37 -25 40 -3 3 -12 14 -18 25 -99 161 -133 219
-133 226 0 4 -3 9 -8 11 -12 5 -229 432 -238 468 -1 8 -15 43 -24 65 -35 80
-119 307 -125 337 -2 9 -8 25 -14 36 -5 10 -12 30 -15 43 -3 13 -10 40 -16 59
-12 39 -80 296 -85 320 -5 29 -17 100 -17 107 0 5 -4 17 -8 29 -8 20 -23 111
-24 147 0 9 -3 17 -6 17 -3 0 -4 15 -4 32 1 18 -1 38 -4 43 -4 6 -7 19 -8 30
-2 31 -14 156 -20 200 -3 23 -7 86 -8 142 -2 56 -5 105 -8 110 -2 4 -3 33 -1
63 4 74 4 69 0 118 -2 23 1 42 6 42 5 0 4 6 -2 13 -6 8 -8 16 -5 19 5 6 9 105
4 123 -1 6 -1 12 0 15 2 6 5 31 14 140 3 47 8 96 10 110 3 14 7 50 10 80 4 30
13 98 22 150 21 136 24 153 29 170 2 8 7 29 10 45 13 74 17 93 31 145 9 30 17
64 19 75 7 36 13 59 45 160 17 55 32 105 34 110 39 153 237 623 326 775 39 67
74 136 72 143 -1 4 2 7 7 7 5 0 14 14 21 30 7 17 16 30 21 30 5 0 9 8 9 18 0
11 9 27 20 37 11 10 20 24 20 32 0 7 5 13 10 13 6 0 10 6 10 13 0 7 10 24 23
37 12 14 20 25 17 25 -6 0 62 99 72 103 4 2 6 8 2 13 -3 5 2 12 10 15 9 3 16
10 16 15 0 6 5 15 10 22 6 7 24 30 40 52 16 22 33 45 37 50 58 75 79 102 88
111 5 6 24 28 40 49 40 49 99 118 160 185 59 65 325 330 331 330 2 0 12 8 22
18 34 33 154 136 175 151 12 8 24 18 27 21 3 4 24 20 47 37 23 17 39 33 36 37
-3 3 -2 6 3 6 5 0 25 14 44 31 19 16 52 44 74 62 21 18 43 37 50 42 26 23 155
125 201 158 28 20 55 40 60 45 6 4 33 23 60 42 28 19 52 37 53 42 2 4 8 8 13
8 5 0 32 16 59 35 27 19 54 35 60 35 5 0 10 4 10 9 0 5 10 13 23 17 12 4 24
10 27 14 9 12 195 120 208 120 7 0 12 3 12 8 0 4 36 25 80 47 44 21 80 43 80
47 0 4 -1 8 -2 7 -2 0 -21 -9 -43 -19z"/>
<path d="M5329 9646 c-2 -2 -29 -7 -59 -11 -30 -4 -63 -11 -72 -16 -9 -5 -24
-9 -32 -9 -27 0 -149 -61 -205 -103 -58 -43 -99 -83 -182 -178 -30 -34 -58
-67 -64 -73 -5 -6 -39 -45 -75 -86 -35 -41 -71 -82 -80 -91 -8 -9 -26 -29 -40
-45 -69 -80 -148 -170 -169 -193 -13 -14 -42 -48 -65 -75 -22 -26 -54 -63 -71
-80 -16 -18 -52 -59 -80 -91 -27 -32 -68 -79 -90 -104 -42 -46 -50 -56 -125
-142 -25 -28 -54 -62 -65 -74 -60 -68 -136 -154 -161 -184 -16 -19 -38 -44
-49 -56 -11 -11 -42 -46 -70 -78 -27 -32 -63 -73 -80 -91 -16 -18 -48 -54 -70
-80 -22 -26 -49 -58 -60 -70 -11 -12 -49 -56 -85 -96 -36 -41 -85 -97 -110
-125 -25 -28 -74 -84 -110 -125 -36 -40 -74 -84 -85 -96 -11 -12 -34 -40 -52
-61 -18 -21 -47 -54 -65 -74 -28 -31 -98 -110 -161 -183 -16 -19 -77 -88 -132
-150 -11 -12 -42 -49 -70 -80 -27 -32 -61 -71 -75 -86 -14 -15 -47 -53 -75
-85 -27 -32 -58 -67 -68 -79 -43 -49 -134 -152 -155 -175 -12 -13 -33 -37 -45
-53 -12 -16 -31 -40 -43 -54 -20 -24 -76 -128 -90 -169 -47 -130 -53 -338 -13
-442 6 -16 12 -36 14 -46 5 -21 60 -132 78 -154 24 -31 163 -168 182 -181 49
-31 166 -82 225 -97 69 -18 203 -24 285 -12 89 12 203 59 289 119 39 28 136
115 136 123 0 2 11 16 24 30 14 15 47 52 73 82 26 30 57 65 68 77 11 12 47 53
80 91 33 39 70 81 82 95 24 26 38 42 138 155 33 38 69 79 80 91 11 13 43 49
70 80 28 32 59 68 70 80 11 12 31 35 44 50 21 25 136 156 166 190 26 29 132
149 148 168 33 37 111 127 132 150 11 13 43 49 70 80 28 32 59 68 70 80 11 12
45 51 75 86 30 34 64 73 75 85 11 13 45 51 75 85 30 35 60 68 65 74 6 6 37 43
70 81 101 118 118 137 175 195 173 178 375 249 615 215 61 -9 73 -11 78 -14 1
-2 13 -4 26 -7 55 -10 256 -126 269 -154 1 -3 22 -27 47 -53 45 -48 115 -158
115 -181 0 -6 4 -16 8 -22 8 -8 24 -57 39 -118 3 -12 6 -70 8 -131 3 -127 -15
-207 -70 -320 -37 -74 -51 -98 -75 -125 -23 -26 -43 -52 -70 -90 -13 -19 -29
-38 -35 -42 -5 -4 -6 -8 -2 -8 5 0 -1 -15 -13 -34 -17 -28 -62 -146 -69 -178
0 -5 -1 -9 -2 -10 -8 -26 -8 -200 1 -244 19 -98 20 -102 32 -131 6 -16 12 -30
13 -33 19 -55 94 -168 146 -217 71 -69 101 -91 159 -122 152 -80 316 -104 480
-69 30 6 60 12 65 14 27 5 125 51 170 80 86 55 122 88 235 222 25 30 59 68 75
86 36 39 90 101 154 176 25 30 55 64 66 76 17 18 94 105 175 198 14 15 34 38
45 50 11 12 45 51 75 86 30 34 64 73 75 86 11 12 43 48 70 80 28 31 63 71 78
88 16 17 41 47 55 66 15 19 30 37 33 40 11 8 73 132 86 170 46 136 45 319 -1
445 -56 152 -120 235 -301 390 -44 38 -90 80 -102 92 -13 13 -23 22 -23 19 0
-2 -15 10 -33 27 -29 28 -96 88 -173 154 -30 25 -153 134 -179 158 -13 11 -49
43 -81 70 -71 62 -132 115 -154 135 -9 8 -47 42 -85 75 -106 91 -146 127 -183
163 -19 17 -37 32 -41 32 -4 0 -13 8 -22 18 -8 9 -39 38 -69 64 -30 25 -68 58
-85 73 -16 14 -54 47 -84 73 -30 26 -64 56 -76 67 -54 49 -95 85 -165 145 -41
36 -77 67 -80 70 -8 9 -183 162 -244 215 -32 28 -71 61 -86 75 -135 122 -261
185 -410 205 -25 3 -54 7 -65 9 -11 2 -26 -1 -32 -7 -9 -6 -17 -6 -26 2 -8 6
-16 9 -18 7z"/>
<path d="M8417 6283 c-2 -1 -26 -5 -54 -8 -143 -16 -295 -94 -403 -205 -48
-50 -51 -53 -210 -235 -58 -66 -107 -122 -110 -125 -6 -6 -197 -224 -231 -264
-13 -15 -33 -38 -44 -50 -11 -12 -49 -56 -85 -97 -36 -40 -77 -87 -92 -102
-16 -16 -28 -31 -28 -33 0 -3 -13 -18 -30 -34 -16 -16 -30 -32 -30 -34 0 -3
-12 -18 -27 -34 -16 -15 -50 -54 -78 -87 -27 -32 -55 -63 -60 -69 -6 -6 -42
-47 -80 -91 -39 -44 -72 -82 -75 -85 -3 -3 -39 -43 -80 -90 -41 -47 -81 -92
-90 -101 -8 -9 -24 -27 -34 -40 -10 -13 -37 -44 -60 -69 -23 -25 -63 -72 -91
-104 -27 -32 -59 -68 -70 -80 -11 -12 -40 -46 -65 -75 -25 -30 -64 -74 -87
-99 -24 -24 -43 -46 -43 -49 0 -2 -10 -14 -22 -27 -13 -13 -39 -41 -59 -62
-45 -48 -109 -107 -109 -99 0 4 -8 -1 -17 -11 -19 -19 -145 -81 -184 -90 -127
-31 -251 -38 -339 -20 -14 3 -37 8 -52 12 -15 3 -31 6 -35 7 -5 0 -42 18 -83
38 -85 41 -170 105 -221 164 -19 22 -37 42 -41 43 -5 2 -8 10 -8 18 0 8 -4 14
-8 14 -12 0 -77 144 -98 215 -11 39 -17 97 -18 165 0 96 3 129 18 178 3 9 7
28 10 42 10 62 68 163 157 276 82 104 127 206 154 349 10 53 6 183 -8 235 -2
8 -7 33 -12 55 -8 43 -63 160 -98 209 -68 98 -173 185 -281 235 -163 75 -378
80 -551 12 -132 -51 -217 -123 -396 -332 -26 -30 -57 -66 -70 -80 -24 -25
-110 -124 -159 -182 -14 -16 -36 -41 -50 -56 -14 -14 -41 -44 -60 -66 -106
-123 -157 -180 -170 -195 -8 -8 -58 -65 -110 -125 -52 -61 -104 -119 -115
-131 -152 -158 -231 -312 -241 -469 -1 -27 -3 -52 -5 -55 -1 -3 -1 -8 -1 -11
1 -3 3 -35 6 -70 8 -93 45 -209 89 -284 59 -98 127 -168 375 -380 19 -16 48
-42 64 -57 16 -15 47 -42 69 -60 22 -18 55 -46 73 -63 18 -16 61 -55 96 -85
54 -47 122 -106 166 -145 6 -5 40 -35 74 -65 35 -30 100 -87 144 -126 45 -39
92 -79 105 -90 13 -10 33 -28 45 -40 18 -18 129 -116 230 -204 16 -14 39 -34
51 -45 13 -11 46 -40 75 -65 56 -48 79 -68 132 -115 64 -57 263 -232 291 -256
16 -13 41 -35 56 -49 15 -14 58 -52 96 -85 38 -33 79 -69 90 -80 32 -31 158
-115 173 -115 6 0 12 -5 12 -12 0 -6 3 -9 6 -6 3 4 22 -1 42 -9 68 -29 176
-49 252 -46 87 2 143 8 156 15 5 3 25 9 44 13 105 22 238 112 346 231 75 84
78 87 144 164 25 29 56 64 70 79 14 15 50 55 80 90 144 167 194 223 223 253
15 16 27 33 27 38 0 6 3 10 8 10 4 0 37 35 74 78 36 42 78 91 93 107 14 17 45
52 68 78 23 27 56 64 73 83 17 18 62 70 100 114 38 44 72 80 76 80 5 0 8 5 8
10 0 6 12 23 28 38 15 16 50 54 77 86 28 32 61 70 75 85 14 16 45 52 70 81 25
29 56 65 70 80 14 15 46 51 72 81 25 30 54 63 65 75 10 12 45 52 78 89 97 111
109 124 140 159 17 18 41 46 55 62 48 55 174 199 184 210 6 6 31 35 56 64 25
28 54 62 65 74 11 13 43 49 70 80 28 32 61 70 75 85 23 26 89 101 140 161 32
37 122 139 145 164 11 12 49 55 84 96 36 41 74 85 85 98 42 45 53 58 88 102
89 112 144 247 153 375 2 22 4 42 5 45 3 6 3 3 -4 85 -12 128 -58 255 -130
354 -21 29 -169 171 -179 171 -5 0 -21 8 -35 18 -29 20 -122 61 -153 68 -52
11 -66 14 -104 20 -41 6 -135 11 -138 7z"/>
<path d="M10360 5765 c0 -8 4 -15 10 -15 5 0 7 7 4 15 -4 8 -8 15 -10 15 -2 0
-4 -7 -4 -15z"/>
<path d="M1039 5733 c-6 -59 -2 -408 5 -503 4 -47 9 -112 11 -145 3 -33 7 -76
10 -95 2 -19 7 -54 10 -77 17 -125 25 -174 32 -203 3 -14 5 -29 4 -34 -1 -4 3
-22 8 -40 6 -17 12 -47 15 -66 2 -19 5 -35 6 -35 1 0 4 -13 6 -30 3 -16 7 -37
11 -45 3 -8 8 -26 10 -40 2 -14 9 -40 14 -58 6 -18 12 -39 13 -45 31 -148 166
-524 270 -750 20 -42 35 -80 35 -83 0 -4 3 -10 8 -13 10 -7 37 -63 35 -73 -1
-3 5 -12 13 -18 8 -7 15 -16 15 -20 0 -7 28 -58 105 -195 15 -27 32 -53 37
-56 6 -3 9 -9 8 -13 0 -4 15 -30 35 -60 19 -29 35 -58 35 -65 0 -6 5 -11 10
-11 6 0 16 -12 23 -27 6 -15 18 -35 26 -43 7 -8 41 -54 75 -101 215 -301 565
-669 825 -869 25 -19 55 -43 66 -53 19 -18 301 -220 340 -244 356 -220 656
-370 938 -469 40 -14 81 -29 92 -34 11 -5 40 -14 65 -21 25 -6 51 -16 58 -21
6 -6 12 -8 12 -4 0 3 16 0 35 -8 19 -8 35 -13 35 -11 0 3 17 -2 38 -9 20 -8
78 -24 127 -36 50 -11 108 -25 130 -30 22 -6 51 -12 65 -15 14 -3 47 -9 74
-15 27 -5 51 -8 54 -5 3 2 12 0 22 -5 17 -9 49 -15 135 -25 22 -2 58 -7 80
-10 37 -5 64 -8 200 -21 157 -15 720 -18 720 -4 0 1 20 3 45 5 51 2 163 13
200 19 14 2 48 7 75 11 28 3 66 9 85 12 19 4 45 7 58 7 12 1 22 3 22 6 0 5 44
12 93 14 15 0 27 4 27 9 0 4 3 6 8 6 4 -1 9 0 12 1 3 1 14 3 25 4 25 3 204 46
225 53 8 3 20 7 27 8 30 7 200 57 218 65 11 5 63 23 115 41 52 18 101 36 108
42 6 5 12 7 12 3 0 -4 19 3 43 15 23 12 43 21 44 21 4 -2 96 37 124 53 14 8
29 12 33 8 3 -3 6 -1 6 5 0 7 7 12 16 12 9 0 29 9 45 21 16 11 29 18 29 14 0
-6 99 43 110 55 3 3 12 6 20 8 8 2 22 10 31 18 9 8 19 11 22 7 4 -3 7 -1 7 5
0 7 5 12 11 12 6 0 66 33 133 73 66 39 126 74 131 76 6 2 26 17 46 32 20 16
41 29 47 29 6 0 12 3 14 8 2 4 30 25 62 47 33 22 77 54 97 70 21 17 60 45 86
64 26 19 53 40 58 46 6 5 30 26 55 45 25 19 50 39 56 45 152 135 404 379 404
390 0 2 19 24 43 48 23 24 58 63 77 87 19 24 43 53 52 64 38 45 54 65 78 96
14 18 35 44 48 59 12 14 32 41 43 59 11 17 25 32 30 32 6 0 8 4 5 9 -3 5 1 14
8 20 8 7 34 42 57 79 24 37 49 71 56 75 7 4 13 14 13 22 0 7 6 20 13 27 18 19
157 254 157 266 0 6 4 12 8 14 16 6 243 487 257 543 1 6 6 19 10 30 31 76 44
115 39 115 -4 0 -2 6 4 13 9 11 69 196 77 238 2 11 6 23 9 27 3 5 7 19 10 33
3 13 16 69 30 124 14 55 27 111 30 125 3 14 7 35 10 46 2 12 7 39 10 60 4 22
8 46 11 54 2 8 6 35 9 60 4 25 9 58 11 74 3 15 8 47 10 70 3 22 7 52 9 66 4
25 15 139 22 235 9 101 10 496 2 501 -4 3 -9 -1 -9 -8 -13 -146 -21 -214 -35
-290 -3 -18 -7 -49 -9 -68 -1 -19 -3 -35 -4 -35 -3 0 -11 -48 -14 -80 -2 -11
-6 -26 -10 -32 -5 -7 -6 -13 -4 -13 3 0 -7 -48 -20 -107 -13 -60 -26 -115 -27
-123 -1 -8 -11 -42 -20 -75 -10 -33 -20 -70 -22 -82 -5 -26 -101 -317 -119
-358 -16 -38 -28 -68 -29 -75 -1 -5 -8 -23 -59 -140 -11 -25 -37 -83 -58 -128
-22 -46 -39 -88 -39 -93 0 -5 -3 -9 -8 -9 -4 0 -18 -24 -31 -52 -13 -29 -32
-65 -43 -80 -11 -16 -17 -28 -14 -28 3 0 -10 -25 -29 -55 -19 -30 -35 -56 -35
-59 0 -10 -151 -241 -163 -248 -7 -4 -9 -8 -5 -8 5 0 -29 -51 -75 -113 -79
-108 -98 -133 -142 -183 -11 -13 -31 -38 -45 -55 -14 -18 -34 -43 -45 -55 -11
-13 -42 -49 -70 -80 -124 -142 -401 -407 -515 -494 -19 -14 -40 -32 -49 -40
-26 -25 -109 -90 -115 -90 -3 0 -14 -7 -23 -15 -36 -32 -123 -95 -123 -90 0 3
-12 -6 -27 -20 -15 -14 -33 -25 -40 -25 -7 0 -13 -4 -13 -10 0 -5 -6 -10 -13
-10 -7 0 -22 -8 -33 -18 -27 -23 -55 -41 -76 -48 -10 -4 -18 -10 -18 -15 0 -5
-5 -9 -10 -9 -6 0 -28 -11 -50 -25 -115 -73 -394 -213 -565 -285 -66 -27 -231
-92 -240 -95 -5 -1 -17 -4 -25 -7 -89 -33 -272 -90 -330 -103 -8 -2 -15 -4
-15 -5 0 -1 -7 -3 -15 -5 -8 -2 -26 -6 -40 -9 -62 -15 -298 -66 -330 -71 -20
-3 -47 -8 -60 -10 -14 -3 -45 -7 -70 -10 -25 -3 -56 -8 -70 -11 -14 -3 -48 -7
-76 -9 -28 -2 -64 -6 -80 -9 -49 -9 -252 -20 -391 -20 -73 -1 -133 -5 -133 -9
0 -5 -5 -5 -11 -1 -7 4 -53 8 -103 10 -105 3 -238 12 -281 18 -16 2 -61 7
-100 11 -38 3 -87 10 -107 14 -20 5 -39 6 -42 4 -2 -3 -10 -2 -16 2 -7 4 -29
9 -49 11 -20 2 -47 6 -61 9 -14 3 -38 8 -55 11 -16 3 -61 12 -100 20 -38 9
-79 17 -90 19 -31 5 -324 88 -365 103 -8 3 -17 6 -20 7 -3 1 -12 4 -20 7 -27
11 -175 63 -180 64 -6 1 -34 12 -80 32 -19 8 -37 16 -40 17 -115 41 -576 271
-610 305 -3 3 -15 11 -27 18 -13 6 -33 18 -45 25 -13 6 -25 14 -28 17 -12 12
-101 70 -108 70 -4 0 -18 10 -32 23 -14 12 -52 40 -85 62 -33 22 -65 44 -71
50 -6 5 -26 21 -44 35 -61 46 -205 162 -222 178 -9 10 -45 42 -79 72 -116 102
-295 284 -419 429 -30 35 -61 70 -67 77 -7 7 -13 15 -13 19 0 3 -9 16 -21 28
-60 64 -319 433 -319 455 0 6 -3 12 -8 14 -10 4 -92 144 -92 156 0 6 -4 12 -9
14 -4 2 -38 64 -75 138 -37 74 -70 139 -74 145 -4 5 -7 15 -8 20 -1 6 -15 38
-32 73 -17 34 -28 62 -25 62 3 0 1 6 -5 13 -5 6 -24 50 -42 97 -17 47 -35 94
-40 105 -9 21 -49 132 -54 150 -2 6 -6 24 -10 40 -4 17 -12 39 -17 50 -5 11
-12 31 -15 45 -7 35 -8 37 -28 104 -9 32 -19 70 -22 85 -2 14 -15 73 -29 131
-25 104 -36 162 -41 210 -1 14 -3 25 -4 25 -1 0 -3 14 -6 30 -6 47 -12 90 -14
90 -1 0 -3 18 -5 40 -2 22 -7 56 -9 75 -3 19 -8 71 -11 115 -7 91 -11 103 -16
48z"/>
<path d="M5448 413 c12 -2 30 -2 40 0 9 3 -1 5 -23 4 -22 0 -30 -2 -17 -4z"/>
</g>
</svg>
